<?xml version="1.0" standalone="no"?>
<!DOCTYPE svg PUBLIC "-//W3C//DTD SVG 20010904//EN"
 "http://www.w3.org/TR/2001/REC-SVG-20010904/DTD/svg10.dtd">
<svg version="1.0" xmlns="http://www.w3.org/2000/svg"
 width="1569.000000pt" height="1454.000000pt" viewBox="0 0 1569.000000 1454.000000"
 preserveAspectRatio="xMidYMid meet">

<g transform="translate(0.000000,1454.000000) scale(0.100000,-0.100000)"
fill="#000000" stroke="none">
<path d="M7580 10394 c-174 -15 -281 -27 -385 -45 -884 -148 -1710 -678 -2401
-1538 -397 -494 -697 -1058 -862 -1621 -26 -91 -51 -210 -35 -172 4 10 10 9
26 -5 16 -13 18 -14 9 -2 -17 22 9 47 27 26 6 -8 9 -17 6 -20 -3 -4 -2 -4 3
-1 4 3 7 10 7 15 0 5 5 9 10 9 6 0 10 -4 10 -9 0 -5 4 -13 9 -18 5 -4 6 -3 3
3 -11 19 18 37 32 21 6 -8 9 -17 6 -20 -3 -4 -2 -4 3 -1 4 3 7 10 7 15 0 5 5
8 10 7 6 -2 9 -7 7 -12 -2 -5 4 -3 13 4 8 7 13 16 10 19 -11 10 -174 7 -168
-3 3 -5 1 -6 -5 -3 -11 8 -10 32 2 44 4 4 6 1 4 -7 -4 -19 24 -19 40 0 11 13
11 13 6 -2 -7 -20 16 -19 41 2 14 11 16 11 13 0 -4 -19 24 -19 40 0 10 13 11
13 6 -3 -5 -12 -2 -16 9 -12 20 8 31 -23 15 -44 -11 -14 -11 -14 4 -3 13 10
17 10 22 0 3 -7 3 -3 0 9 -6 27 22 25 43 -3 12 -16 14 -16 11 -2 -2 9 2 16 7
15 6 -1 9 -5 8 -8 -1 -3 4 -6 11 -6 8 0 12 11 11 29 -1 15 1 31 6 34 5 3 8 0
7 -7 -4 -18 24 -18 40 1 10 13 11 13 6 -3 -5 -12 -2 -16 9 -12 20 8 31 -23 15
-44 -11 -14 -11 -14 4 -3 13 10 17 10 22 0 3 -7 3 -3 0 9 -6 27 22 25 43 -3
12 -16 14 -16 11 -2 -2 9 1 16 7 15 5 -1 9 -5 8 -8 -1 -3 4 -6 11 -6 8 0 12
11 11 29 -1 15 1 31 6 34 5 3 8 0 7 -7 -4 -18 24 -18 40 1 10 13 11 13 6 -3
-5 -12 -2 -16 9 -12 20 8 31 -23 15 -44 -11 -14 -11 -14 4 -3 13 10 17 10 22
0 3 -7 3 -3 0 9 -6 27 22 25 43 -3 12 -16 14 -16 11 -2 -2 9 1 16 7 15 5 -1 9
-5 8 -8 -1 -3 4 -6 11 -6 8 0 12 11 11 29 -1 15 1 31 6 34 5 3 8 0 7 -7 -4
-18 24 -18 40 1 10 13 11 13 6 -3 -5 -12 -2 -16 9 -12 20 8 31 -23 15 -44 -11
-14 -11 -14 4 -3 13 10 17 10 22 0 3 -7 3 -3 0 9 -6 27 22 25 43 -3 10 -13 13
-14 11 -4 -1 8 2 15 7 15 6 0 9 -3 8 -6 -1 -3 4 -6 11 -6 8 0 12 11 11 29 -1
15 1 31 6 34 5 3 8 0 7 -7 -4 -18 24 -18 40 1 10 13 11 13 6 -3 -5 -12 -2 -16
9 -12 20 8 31 -23 15 -44 -11 -14 -11 -14 4 -3 13 10 17 10 22 0 3 -7 3 -3 0
9 -6 27 22 25 43 -3 10 -13 13 -14 11 -4 -1 8 2 15 7 15 6 0 9 -3 8 -6 -1 -3
4 -6 11 -6 8 0 12 11 11 29 -1 15 1 31 6 34 5 3 8 0 7 -7 -4 -18 24 -18 40 1
10 13 11 13 6 -3 -5 -12 -2 -16 9 -12 20 8 31 -23 15 -44 -11 -14 -11 -14 4
-3 13 10 17 10 22 0 3 -7 3 -3 0 9 -6 27 22 25 43 -3 10 -13 13 -14 11 -4 -1
8 2 15 7 15 6 0 9 -3 8 -6 -1 -3 4 -6 11 -6 8 0 12 11 11 29 -1 15 1 31 6 34
5 3 8 0 7 -7 -4 -18 24 -18 40 1 10 13 11 13 6 -3 -5 -12 -2 -16 9 -12 20 8
31 -23 15 -44 -11 -14 -11 -14 4 -3 13 10 17 10 22 0 3 -7 3 -3 0 9 -6 27 22
25 43 -3 10 -13 13 -14 11 -4 -1 8 2 15 7 15 6 0 9 -3 8 -6 -1 -3 4 -6 11 -6
8 0 12 11 11 29 -1 15 1 31 6 34 5 3 8 0 7 -7 -4 -18 24 -18 40 1 10 13 11 13
6 -3 -5 -12 -2 -16 9 -12 20 8 31 -23 15 -44 -11 -14 -11 -14 4 -3 13 10 17
10 22 0 3 -7 3 -3 0 9 -6 27 22 25 43 -3 10 -13 13 -14 11 -4 -1 8 2 15 7 15
6 0 9 -3 8 -6 -1 -3 4 -6 11 -6 8 0 12 11 11 29 -1 15 1 31 6 34 5 3 8 0 7 -7
-4 -18 24 -18 40 1 10 13 11 13 6 -3 -5 -12 -2 -16 9 -12 20 8 31 -23 15 -44
-11 -14 -11 -14 4 -3 13 10 17 10 22 0 3 -7 3 -3 0 9 -6 27 22 25 43 -3 10
-13 13 -14 11 -4 -1 8 2 15 7 15 6 0 9 -3 8 -6 -1 -3 4 -6 11 -6 8 0 12 11 11
29 -1 15 1 31 6 34 5 3 8 0 7 -7 -4 -18 24 -18 40 1 10 13 11 13 6 -3 -5 -12
-2 -16 9 -12 20 8 31 -23 15 -44 -11 -14 -11 -14 4 -3 13 10 17 10 22 0 3 -7
3 -3 0 9 -6 27 22 25 43 -3 10 -13 13 -14 11 -4 -1 8 2 15 7 15 6 0 9 -3 8 -6
-1 -3 4 -6 11 -6 8 0 12 11 11 29 -1 15 1 31 6 34 5 3 8 0 7 -7 -4 -18 24 -18
40 1 10 13 11 13 6 -3 -5 -13 -2 -16 10 -11 9 3 16 2 16 -3 0 -6 -18 -9 -40
-8 -30 1 -37 -1 -30 -10 5 -6 8 -14 5 -17 -3 -2 2 -5 9 -5 8 0 14 3 13 6 -1 3
3 6 8 6 6 0 9 -3 8 -6 -1 -3 4 -6 12 -6 8 0 13 3 12 6 -1 3 3 6 8 6 5 0 9 -3
8 -6 -1 -3 4 -6 12 -6 8 0 13 3 12 6 -1 3 3 6 8 6 6 0 9 -3 8 -6 -1 -3 4 -6
12 -6 8 0 13 3 12 6 -1 3 3 6 8 6 6 0 9 -4 7 -9 -2 -5 4 -4 12 3 24 20 12 28
-42 26 -48 -1 -61 9 -38 32 4 4 6 1 4 -7 -4 -19 24 -19 40 0 11 13 11 13 6 -2
-6 -19 15 -19 39 0 12 10 14 7 12 -23 -1 -20 2 -38 7 -41 5 -3 8 -2 7 3 -1 4
0 17 1 28 2 17 3 17 10 -5 7 -21 8 -18 9 20 1 34 4 41 12 30 8 -12 9 -11 4 6
-3 13 1 26 10 34 8 7 15 21 15 31 0 10 5 21 10 24 12 7 10 65 -2 65 -4 0 -8 9
-8 21 0 11 -4 17 -10 14 -5 -3 -10 -2 -10 3 0 10 -60 38 -73 34 -4 -1 -10 5
-13 13 -4 8 -17 15 -31 15 -13 0 -32 4 -42 10 -10 5 -34 10 -54 12 -20 1 -35
7 -34 12 1 6 -22 12 -53 14 -30 2 -59 7 -65 11 -5 4 -30 9 -55 10 -24 1 -50 7
-57 13 -8 6 -16 8 -20 4 -3 -3 0 -6 7 -6 7 0 10 -3 7 -6 -4 -4 -12 -2 -20 4
-7 6 -36 12 -65 13 -35 2 -52 7 -52 16 0 9 -16 13 -56 13 -35 0 -53 4 -49 10
4 6 3 10 -2 9 -32 -6 -123 3 -123 12 0 5 6 7 13 3 8 -5 9 -4 2 4 -6 7 -32 12
-57 13 -26 1 -45 6 -42 11 3 4 -11 8 -30 8 -30 0 -36 4 -36 21 0 25 38 62 54
52 7 -4 7 -2 -1 8 -10 12 -8 15 8 16 21 2 49 26 49 42 0 6 9 11 20 11 11 0 20
5 20 10 0 6 6 10 14 10 8 0 18 5 22 12 5 7 3 8 -6 3 -9 -5 -11 -4 -6 3 4 7 14
12 22 12 8 0 14 5 14 10 0 6 9 10 21 10 23 0 49 22 50 42 0 7 4 4 9 -7 7 -17
9 -17 9 -2 1 9 8 17 17 17 9 0 12 5 8 12 -4 7 -3 8 4 4 6 -4 19 2 29 14 10 11
23 20 30 20 7 0 13 6 13 13 0 8 4 7 10 -3 6 -10 10 -11 10 -2 0 6 11 12 25 12
16 0 25 6 25 15 0 13 26 21 53 16 5 -1 6 3 2 9 -3 6 4 10 18 10 13 0 27 3 31
8 9 8 14 9 62 11 19 0 33 5 29 10 -8 15 6 19 67 23 31 1 54 6 51 10 -2 5 59 8
136 7 78 0 141 -4 141 -8 0 -4 29 -9 65 -10 54 -2 65 1 65 14 0 10 5 13 13 9
7 -5 6 0 -3 11 -9 12 -10 16 -2 11 10 -6 12 4 10 42 -2 28 -6 48 -10 46 -4 -3
-7 25 -7 61 1 37 -4 72 -10 78 -6 6 -11 23 -11 38 0 15 -4 31 -10 34 -5 3 -10
17 -10 31 0 14 -4 22 -10 19 -5 -3 -10 2 -10 12 0 28 -23 73 -37 73 -7 0 -13
11 -13 25 0 14 -4 25 -10 25 -5 0 -10 7 -10 15 0 8 -4 15 -10 15 -5 0 -10 9
-10 21 0 11 -4 17 -10 14 -5 -3 -10 3 -10 14 0 12 -5 21 -11 21 -5 0 -7 5 -4
10 3 6 -1 10 -9 10 -9 0 -16 5 -16 10 0 6 5 10 12 10 6 0 1 8 -10 19 -25 21
-28 46 -9 66 17 17 323 22 329 5 1 -5 15 -11 31 -12 15 -1 27 -6 27 -10 0 -4
3 -7 8 -7 27 5 52 -3 52 -16 0 -9 9 -15 25 -15 14 0 25 -4 25 -10 0 -5 9 -10
20 -10 11 0 19 -3 19 -7 -3 -18 1 -36 7 -30 4 3 13 -1 21 -9 8 -8 19 -12 24
-9 5 4 9 -1 9 -9 0 -9 5 -16 10 -16 10 0 12 8 12 72 0 21 4 35 9 33 4 -3 6
-12 2 -20 -3 -8 0 -15 6 -15 6 0 10 3 10 8 -6 37 3 182 11 177 6 -4 10 8 10
29 0 20 5 36 10 36 6 0 10 10 10 23 0 12 9 29 20 37 11 8 20 25 20 37 0 13 5
23 10 23 6 0 10 6 10 13 0 7 9 19 20 27 11 8 20 25 20 37 0 13 5 23 11 23 19
0 59 56 59 83 0 7 9 19 20 27 11 8 20 24 20 35 0 11 9 27 20 35 11 8 20 25 20
37 0 13 5 23 10 23 6 0 10 7 10 15 0 8 7 15 15 15 8 0 15 9 15 20 0 11 5 20
10 20 6 0 10 7 10 15 0 8 5 15 10 15 6 0 10 9 10 21 0 11 7 27 16 36 8 9 13
21 10 28 -2 6 4 18 15 26 10 7 19 24 19 36 0 13 5 23 10 23 6 0 10 11 10 25 0
14 5 25 10 25 6 0 10 10 11 23 0 12 3 16 6 9 7 -17 23 -5 23 19 0 10 5 19 10
19 6 0 10 11 10 25 0 14 5 25 10 25 6 0 10 10 10 23 0 12 9 29 20 37 14 10 16
16 7 22 -9 6 -9 8 1 8 6 0 12 9 12 21 0 11 4 18 8 15 4 -2 9 5 9 16 1 12 7 24
14 28 8 6 8 9 -2 13 -10 4 -10 6 -1 6 6 1 12 8 12 16 0 8 5 15 10 15 6 0 10
11 10 25 0 14 5 24 12 23 7 -2 14 7 16 20 2 12 8 22 13 22 5 0 9 11 9 25 0 14
5 25 10 25 6 0 10 7 10 15 0 8 9 15 20 15 11 0 20 -5 20 -11 0 -5 -5 -7 -12
-3 -7 4 -2 -6 10 -23 12 -17 22 -38 22 -46 0 -9 4 -17 10 -19 5 -1 10 -17 12
-35 1 -17 6 -29 10 -27 4 3 8 -4 8 -15 0 -12 7 -21 15 -21 9 0 15 -9 15 -25 0
-14 5 -25 10 -25 6 0 10 -11 10 -25 0 -14 5 -25 10 -25 6 0 10 -9 10 -20 0
-11 5 -20 10 -20 6 0 10 -11 10 -25 0 -14 5 -25 10 -25 6 0 10 -11 10 -24 0
-13 4 -26 9 -28 5 -1 11 -12 13 -23 1 -11 11 -27 21 -36 9 -9 17 -26 17 -38 0
-12 6 -21 15 -21 9 0 15 -9 15 -23 0 -12 9 -29 20 -37 11 -8 20 -25 20 -37 0
-13 5 -23 10 -23 6 0 10 -7 10 -15 0 -8 6 -15 13 -15 8 0 7 -4 -3 -10 -10 -6
-11 -10 -2 -10 6 0 12 -7 12 -15 0 -8 5 -15 10 -15 6 0 10 -10 10 -22 0 -19 2
-20 10 -8 8 12 10 10 10 -8 0 -25 21 -52 40 -52 7 0 10 -7 6 -15 -3 -8 1 -21
9 -29 8 -8 15 -19 15 -25 0 -6 5 -11 10 -11 6 0 10 -10 10 -22 0 -19 2 -20 10
-8 8 12 10 10 10 -10 0 -14 9 -32 20 -40 11 -8 20 -20 20 -27 0 -7 5 -13 10
-13 6 0 10 -12 10 -26 0 -14 4 -23 10 -19 6 3 10 -1 10 -9 0 -9 5 -16 11 -16
14 0 39 -25 39 -39 0 -6 5 -11 10 -11 6 0 10 -12 10 -26 0 -14 4 -23 10 -19 6
3 10 -1 10 -9 0 -9 5 -16 10 -16 6 0 10 -11 10 -25 0 -14 5 -25 10 -25 6 0 10
-11 10 -25 0 -14 5 -25 10 -25 6 0 10 -25 10 -56 0 -34 4 -53 10 -49 6 4 10
-25 10 -80 0 -51 4 -84 9 -80 5 3 13 0 17 -6 4 -7 3 -9 -4 -5 -6 3 -13 2 -17
-4 -3 -5 1 -10 10 -10 9 0 14 -4 11 -9 -4 -5 5 -4 19 2 14 7 25 15 25 20 0 4
7 7 15 7 8 0 24 9 35 20 12 12 26 18 32 14 7 -4 8 -3 4 4 -4 7 -1 12 8 12 9 0
15 6 14 13 -2 7 9 13 25 15 15 2 25 8 22 13 -5 8 15 14 37 10 4 0 5 6 2 14 -4
10 0 15 11 15 10 0 13 5 9 12 -4 6 -3 8 4 4 5 -3 25 6 43 21 18 16 29 21 25
13 -5 -8 3 -3 16 13 16 16 36 27 52 27 l26 0 0 -119 c0 -73 4 -122 10 -126 8
-5 8 -11 0 -20 -6 -7 -7 -16 -2 -19 5 -3 10 -99 11 -213 1 -145 5 -211 14
-222 10 -12 9 -13 -2 -6 -11 6 -12 5 -5 -6 5 -8 10 -27 11 -44 0 -16 2 -34 2
-38 1 -4 35 -7 76 -6 41 1 72 6 69 10 -3 5 36 10 85 10 102 2 102 2 117 11 6
4 14 4 18 1 10 -11 37 -12 30 -2 -3 5 0 9 5 9 6 0 11 -6 11 -12 0 -9 4 -8 10
2 9 13 10 13 10 0 0 -13 1 -13 10 0 7 11 10 11 10 2 0 -7 8 -12 18 -11 46 4
163 -2 158 -9 -2 -4 10 -9 27 -10 56 -4 71 -8 75 -20 2 -7 12 -12 23 -12 10 0
19 -4 19 -10 0 -5 9 -10 19 -10 11 0 21 -4 23 -10 2 -5 15 -11 30 -12 21 -2
24 -5 16 -15 -8 -10 -4 -13 16 -13 14 0 26 -4 26 -10 0 -5 6 -10 14 -10 8 0
18 -5 22 -12 5 -7 3 -8 -6 -3 -9 5 -11 4 -6 -3 4 -7 12 -12 17 -12 11 0 39
-25 39 -35 0 -9 48 -55 57 -55 9 0 33 -48 33 -67 0 -7 5 -13 10 -13 6 0 10 -7
10 -16 0 -9 5 -12 13 -8 7 5 6 0 -3 -11 -9 -11 -10 -16 -2 -11 7 4 12 1 12 -8
0 -9 5 -16 10 -16 6 0 10 -16 10 -35 l0 -35 -85 0 c-74 0 -85 -2 -86 -17 0
-15 -2 -15 -9 2 -7 17 -9 17 -9 3 -1 -16 -13 -18 -88 -19 -49 -1 -91 -1 -95 0
-5 0 -8 -5 -8 -12 0 -8 -4 -7 -10 3 -5 8 -10 10 -10 4 0 -6 -26 -12 -62 -13
-42 -1 -66 -7 -71 -17 -5 -9 -24 -14 -51 -14 -23 0 -46 -3 -50 -7 -4 -4 -31
-15 -59 -24 -29 -10 -51 -22 -49 -29 1 -6 -1 -9 -5 -7 -12 7 -75 -24 -103 -50
-13 -13 -29 -23 -36 -23 -6 0 -14 -7 -18 -15 -3 -8 -11 -15 -18 -15 -7 0 -37
-22 -67 -49 -53 -48 -54 -50 -41 -80 7 -17 17 -31 22 -31 6 0 4 -8 -3 -17 -7
-10 -9 -15 -4 -10 4 4 16 -5 26 -20 16 -24 18 -25 16 -6 0 12 -4 20 -7 18 -4
-2 -7 2 -7 10 0 8 5 11 11 7 6 -4 589 -7 1296 -7 707 0 1290 -4 1297 -8 23
-14 22 11 -2 100 -107 402 -314 864 -560 1252 -278 439 -718 915 -1141 1233
-632 476 -1326 719 -2094 732 -118 2 -235 2 -260 0z m-3452 -3316 c-4 -17 25
-16 40 2 10 13 11 13 6 -3 -5 -12 -2 -16 9 -12 8 4 17 -1 21 -11 5 -14 4 -15
-8 -5 -10 9 -16 9 -21 1 -4 -7 -11 -8 -18 -2 -7 5 -19 8 -28 7 -15 -3 -17 7
-10 33 3 8 11 0 9 -10z m200 0 c-4 -17 25 -16 40 2 10 13 11 13 6 -3 -5 -12
-2 -16 9 -12 8 4 17 -1 21 -11 5 -14 4 -15 -8 -5 -10 9 -16 9 -21 1 -4 -7 -11
-8 -18 -2 -7 5 -19 8 -28 7 -15 -3 -17 7 -10 33 3 8 11 0 9 -10z m200 0 c-4
-17 25 -16 40 2 10 13 11 13 6 -3 -5 -12 -2 -16 9 -12 8 4 17 -1 21 -11 5 -14
4 -15 -8 -5 -10 9 -16 9 -21 1 -4 -7 -11 -8 -18 -2 -7 5 -19 8 -28 7 -15 -3
-17 7 -10 33 3 8 11 0 9 -10z m200 0 c-4 -17 25 -16 40 2 10 13 11 13 6 -3 -5
-12 -2 -16 9 -12 8 4 17 -1 21 -11 5 -14 4 -15 -8 -5 -10 9 -16 9 -21 1 -4 -7
-11 -8 -18 -2 -7 5 -19 8 -28 7 -15 -3 -17 7 -10 33 3 8 11 0 9 -10z m200 0
c-4 -17 25 -16 40 2 10 13 11 13 6 -3 -5 -12 -2 -16 9 -12 8 4 17 -1 21 -11 5
-14 4 -15 -8 -5 -10 9 -16 9 -21 1 -4 -7 -11 -8 -18 -2 -7 5 -19 8 -28 7 -15
-3 -17 7 -10 33 3 8 11 0 9 -10z m200 0 c-4 -17 25 -16 40 2 10 13 11 13 6 -3
-5 -12 -2 -16 9 -12 8 4 17 -1 21 -11 5 -14 4 -15 -8 -5 -10 9 -16 9 -21 1 -4
-7 -11 -8 -18 -2 -7 5 -19 8 -28 7 -15 -3 -17 7 -10 33 3 8 11 0 9 -10z m200
0 c-4 -17 25 -16 40 2 10 13 11 13 6 -3 -5 -12 -2 -16 9 -12 8 4 17 -1 21 -11
5 -14 4 -15 -8 -5 -10 9 -16 9 -21 1 -4 -7 -11 -8 -18 -2 -7 5 -19 8 -28 7
-15 -3 -17 7 -10 33 3 8 11 0 9 -10z m200 0 c-4 -17 25 -16 40 2 10 13 11 13
6 -3 -5 -12 -2 -16 9 -12 8 4 17 -1 21 -11 5 -14 4 -15 -8 -5 -10 9 -16 9 -21
1 -4 -7 -11 -8 -18 -2 -7 5 -19 8 -28 7 -15 -3 -17 7 -10 33 3 8 11 0 9 -10z
m200 0 c-4 -17 25 -16 40 2 10 13 11 13 6 -3 -5 -12 -2 -16 9 -12 8 4 17 -1
21 -11 5 -14 4 -15 -8 -5 -10 9 -16 9 -21 1 -4 -7 -11 -8 -18 -2 -7 5 -19 8
-28 7 -15 -3 -17 7 -10 33 3 8 11 0 9 -10z m200 0 c-4 -17 25 -16 40 2 10 13
11 13 6 -3 -5 -12 -2 -16 9 -12 8 4 17 -1 21 -11 5 -14 4 -15 -8 -5 -10 9 -16
9 -21 1 -4 -7 -11 -8 -18 -2 -7 5 -19 8 -28 7 -15 -3 -17 7 -10 33 3 8 11 0 9
-10z"/>
<path d="M8060 9319 c0 -5 5 -7 10 -4 6 3 10 8 10 11 0 2 -4 4 -10 4 -5 0 -10
-5 -10 -11z"/>
<path d="M7590 7070 c-13 -8 -13 -10 2 -10 10 0 15 -5 12 -13 -3 -10 4 -14 26
-15 20 0 30 4 30 14 0 8 5 12 10 9 6 -3 10 1 10 9 0 18 -65 22 -90 6z"/>
<path d="M9055 7070 c-2 -3 0 -12 4 -19 6 -10 10 -9 15 4 6 18 26 12 26 -8 0
-8 -3 -7 -9 2 -6 9 -8 4 -8 -17 1 -23 5 -28 14 -20 7 6 11 14 8 18 -2 4 2 16
10 26 13 18 14 17 9 -11 -3 -25 -2 -27 7 -12 10 18 12 18 31 1 11 -10 18 -14
16 -9 -2 6 2 10 7 10 6 0 9 -4 7 -10 -2 -5 0 -7 4 -2 4 4 19 0 33 -9 l26 -15
-22 19 c-12 11 -19 22 -16 26 4 3 15 -2 25 -11 11 -10 18 -13 16 -8 -2 6 2 10
7 10 6 0 9 -4 7 -10 -2 -5 0 -7 4 -2 4 4 19 0 33 -9 l26 -15 -22 19 c-12 11
-19 22 -16 26 4 3 15 -2 25 -11 11 -10 18 -13 16 -8 -2 6 2 10 7 10 6 0 9 -4
7 -10 -2 -5 0 -7 4 -2 4 4 19 0 33 -9 l26 -15 -22 19 c-12 11 -19 22 -16 26 4
3 15 -2 25 -11 11 -10 18 -13 16 -8 -2 6 2 10 7 10 6 0 9 -4 7 -10 -2 -5 0 -7
4 -2 4 4 19 0 33 -9 l26 -15 -22 19 c-12 11 -19 22 -16 26 4 3 15 -2 25 -11
11 -10 18 -12 16 -6 -2 6 2 11 7 11 6 0 9 -5 7 -11 -2 -7 0 -9 4 -4 4 4 19 0
33 -9 l26 -15 -22 19 c-12 11 -19 22 -16 26 4 3 15 -2 25 -11 11 -10 18 -12
16 -6 -2 6 2 11 7 11 6 0 9 -5 7 -11 -2 -7 0 -9 4 -4 4 4 19 0 33 -9 l26 -15
-22 19 c-12 11 -19 22 -16 26 4 3 15 -2 25 -11 11 -10 18 -12 16 -6 -2 6 2 11
7 11 6 0 9 -5 7 -11 -2 -7 0 -9 4 -4 4 4 19 0 33 -9 l26 -15 -22 19 c-12 11
-19 22 -16 26 4 3 15 -2 25 -11 11 -10 18 -12 16 -6 -2 6 2 11 7 11 6 0 9 -5
7 -11 -2 -7 0 -9 4 -4 4 4 19 0 33 -9 l26 -15 -22 19 c-12 11 -19 22 -16 26 4
3 15 -2 25 -11 11 -10 18 -12 16 -6 -2 6 2 11 7 11 6 0 9 -5 7 -11 -2 -7 0 -9
4 -4 4 4 19 0 33 -9 l26 -15 -22 19 c-12 11 -19 22 -16 26 4 3 15 -2 25 -11
11 -10 18 -13 16 -8 -2 6 2 10 7 10 6 0 9 -4 7 -10 -2 -5 0 -7 4 -2 4 4 19 0
33 -9 l26 -15 -22 19 c-12 11 -19 22 -16 26 4 3 15 -2 25 -11 11 -10 18 -13
16 -8 -2 6 2 10 7 10 5 0 9 -4 7 -10 -2 -5 0 -7 4 -2 4 4 19 0 33 -9 l26 -15
-22 19 c-12 11 -19 22 -16 26 4 3 15 -2 25 -11 11 -10 18 -13 16 -8 -2 6 2 10
7 10 6 0 9 -4 7 -10 -2 -5 0 -7 4 -2 4 4 19 0 33 -9 l26 -15 -22 19 c-12 11
-19 22 -16 26 4 3 15 -2 25 -11 11 -10 18 -13 16 -8 -2 6 2 10 7 10 6 0 9 -4
7 -10 -2 -5 0 -7 4 -2 4 4 19 0 33 -9 l26 -15 -22 19 c-12 11 -19 22 -16 26 4
3 15 -2 25 -11 11 -10 18 -13 16 -8 -2 6 2 10 7 10 6 0 9 -4 7 -10 -2 -5 0 -7
4 -2 4 4 19 0 33 -9 l26 -15 -22 19 c-12 11 -19 22 -16 26 4 3 15 -2 25 -11
11 -10 18 -13 16 -8 -2 6 2 10 7 10 6 0 9 -4 7 -10 -2 -5 0 -7 4 -2 4 4 19 0
33 -9 l26 -15 -22 19 c-12 11 -19 22 -16 26 4 3 15 -2 25 -11 11 -10 18 -13
16 -8 -2 6 2 10 7 10 6 0 9 -4 7 -10 -2 -5 0 -7 4 -2 4 4 19 0 33 -9 l26 -15
-22 19 c-12 11 -19 22 -16 26 4 3 15 -2 25 -11 11 -10 18 -13 16 -8 -2 6 2 10
7 10 5 0 9 -4 7 -10 -2 -5 0 -7 4 -2 4 4 19 0 33 -9 l26 -15 -22 19 c-12 11
-19 22 -16 26 4 3 15 -2 25 -11 11 -10 18 -13 16 -8 -2 6 2 10 7 10 6 0 9 -4
7 -10 -2 -5 0 -7 4 -2 4 4 19 0 33 -9 l26 -15 -22 19 c-12 11 -19 22 -16 26 4
3 15 -2 25 -11 11 -10 18 -13 16 -8 -2 6 2 10 7 10 6 0 9 -4 7 -10 -2 -5 0 -7
4 -2 4 4 19 0 33 -9 l26 -15 -22 19 c-12 11 -19 22 -16 26 4 3 15 -2 25 -11
11 -10 18 -13 16 -8 -2 6 2 10 7 10 6 0 8 -4 7 -10 -2 -5 0 -7 4 -2 4 4 19 0
33 -9 l26 -15 -22 19 c-12 11 -19 22 -16 26 4 3 15 -2 25 -11 11 -10 18 -13
16 -8 -2 6 2 10 7 10 6 0 8 -4 7 -10 -2 -5 0 -7 4 -2 4 4 19 0 33 -9 l26 -15
-22 19 c-12 11 -19 22 -16 26 4 3 15 -2 25 -11 11 -10 18 -13 16 -8 -2 6 2 10
7 10 6 0 8 -4 7 -10 -2 -5 0 -7 4 -2 4 4 19 0 33 -9 l26 -15 -22 19 c-12 11
-19 22 -16 26 4 3 15 -2 25 -11 11 -10 18 -13 16 -8 -2 6 2 10 7 10 6 0 8 -4
7 -10 -2 -5 0 -7 4 -2 4 4 19 0 33 -9 l26 -15 -22 19 c-12 11 -19 22 -16 26 4
3 15 -2 25 -11 11 -10 18 -13 16 -8 -2 6 2 10 7 10 6 0 8 -4 7 -10 -2 -5 0 -7
4 -2 4 4 19 0 33 -9 l26 -15 -22 19 c-12 11 -19 22 -16 26 4 3 15 -2 25 -11
11 -10 18 -13 16 -8 -2 6 2 10 7 10 6 0 8 -4 7 -10 -2 -5 0 -7 4 -2 4 4 19 0
33 -9 l26 -15 -22 19 c-12 11 -19 22 -16 26 4 3 15 -2 25 -11 11 -10 18 -13
16 -8 -2 6 2 10 7 10 6 0 9 -4 7 -10 -2 -5 0 -7 4 -2 4 4 19 0 33 -9 l26 -15
-22 19 c-12 11 -19 22 -16 26 4 3 15 -2 25 -11 11 -10 18 -13 16 -8 -2 6 2 10
7 10 6 0 9 -4 7 -10 -2 -5 0 -7 4 -2 4 4 19 0 33 -9 l26 -15 -22 19 c-12 11
-19 22 -16 26 4 3 15 -2 25 -11 11 -10 18 -13 16 -8 -2 6 2 10 7 10 6 0 9 -4
7 -10 -2 -5 0 -7 4 -2 4 4 19 0 33 -9 l26 -15 -22 19 c-12 11 -19 22 -16 26 4
3 15 -2 25 -11 11 -10 18 -13 16 -8 -2 6 2 10 7 10 6 0 9 -4 7 -10 -2 -5 0 -7
4 -2 4 4 19 0 33 -9 l26 -15 -22 19 c-12 11 -19 22 -16 26 4 3 15 -2 25 -11
15 -13 19 -14 16 -3 -2 8 4 14 12 15 8 1 14 7 12 14 -1 7 2 10 8 6 6 -4 8 -16
5 -28 -5 -17 -4 -19 4 -7 10 14 16 7 11 -15 -1 -5 2 -7 6 -2 4 4 9 18 11 30 2
18 1 19 -8 7 -7 -10 -9 -11 -7 -2 6 21 22 15 30 -10 6 -23 6 -23 7 -1 1 32 20
38 30 11 9 -22 11 -19 11 19 0 9 -2570 11 -2575 3z m119 -21 c-3 -5 -10 -7
-15 -3 -5 3 -7 10 -3 15 3 5 10 7 15 3 5 -3 7 -10 3 -15z m40 0 c-3 -5 -10 -7
-15 -3 -5 3 -7 10 -3 15 3 5 10 7 15 3 5 -3 7 -10 3 -15z m40 0 c-3 -5 -10 -7
-15 -3 -5 3 -7 10 -3 15 3 5 10 7 15 3 5 -3 7 -10 3 -15z m40 0 c-3 -5 -10 -7
-15 -3 -5 3 -7 10 -3 15 3 5 10 7 15 3 5 -3 7 -10 3 -15z m40 0 c-3 -5 -10 -7
-15 -3 -5 3 -7 10 -3 15 3 5 10 7 15 3 5 -3 7 -10 3 -15z m40 0 c-3 -5 -10 -7
-15 -3 -5 3 -7 10 -3 15 3 5 10 7 15 3 5 -3 7 -10 3 -15z m40 0 c-3 -5 -10 -7
-15 -3 -5 3 -7 10 -3 15 3 5 10 7 15 3 5 -3 7 -10 3 -15z m40 0 c-3 -5 -10 -7
-15 -3 -5 3 -7 10 -3 15 3 5 10 7 15 3 5 -3 7 -10 3 -15z m40 0 c-3 -5 -10 -7
-15 -3 -5 3 -7 10 -3 15 3 5 10 7 15 3 5 -3 7 -10 3 -15z m40 0 c-3 -5 -10 -7
-15 -3 -5 3 -7 10 -3 15 3 5 10 7 15 3 5 -3 7 -10 3 -15z m40 0 c-3 -5 -10 -7
-15 -3 -5 3 -7 10 -3 15 3 5 10 7 15 3 5 -3 7 -10 3 -15z m40 0 c-3 -5 -10 -7
-15 -3 -5 3 -7 10 -3 15 3 5 10 7 15 3 5 -3 7 -10 3 -15z m40 0 c-3 -5 -10 -7
-15 -3 -5 3 -7 10 -3 15 3 5 10 7 15 3 5 -3 7 -10 3 -15z m40 0 c-3 -5 -10 -7
-15 -3 -5 3 -7 10 -3 15 3 5 10 7 15 3 5 -3 7 -10 3 -15z m40 0 c-3 -5 -10 -7
-15 -3 -5 3 -7 10 -3 15 3 5 10 7 15 3 5 -3 7 -10 3 -15z m40 0 c-3 -5 -10 -7
-15 -3 -5 3 -7 10 -3 15 3 5 10 7 15 3 5 -3 7 -10 3 -15z m40 0 c-3 -5 -10 -7
-15 -3 -5 3 -7 10 -3 15 3 5 10 7 15 3 5 -3 7 -10 3 -15z m40 0 c-3 -5 -10 -7
-15 -3 -5 3 -7 10 -3 15 3 5 10 7 15 3 5 -3 7 -10 3 -15z m40 0 c-3 -5 -10 -7
-15 -3 -5 3 -7 10 -3 15 3 5 10 7 15 3 5 -3 7 -10 3 -15z m40 0 c-3 -5 -10 -7
-15 -3 -5 3 -7 10 -3 15 3 5 10 7 15 3 5 -3 7 -10 3 -15z m40 0 c-3 -5 -10 -7
-15 -3 -5 3 -7 10 -3 15 3 5 10 7 15 3 5 -3 7 -10 3 -15z m40 0 c-3 -5 -10 -7
-15 -3 -5 3 -7 10 -3 15 3 5 10 7 15 3 5 -3 7 -10 3 -15z m40 0 c-3 -5 -10 -7
-15 -3 -5 3 -7 10 -3 15 3 5 10 7 15 3 5 -3 7 -10 3 -15z m40 0 c-3 -5 -10 -7
-15 -3 -5 3 -7 10 -3 15 3 5 10 7 15 3 5 -3 7 -10 3 -15z m40 0 c-3 -5 -10 -7
-15 -3 -5 3 -7 10 -3 15 3 5 10 7 15 3 5 -3 7 -10 3 -15z m40 0 c-3 -5 -10 -7
-15 -3 -5 3 -7 10 -3 15 3 5 10 7 15 3 5 -3 7 -10 3 -15z m40 0 c-3 -5 -10 -7
-15 -3 -5 3 -7 10 -3 15 3 5 10 7 15 3 5 -3 7 -10 3 -15z m40 0 c-3 -5 -10 -7
-15 -3 -5 3 -7 10 -3 15 3 5 10 7 15 3 5 -3 7 -10 3 -15z m40 0 c-3 -5 -10 -7
-15 -3 -5 3 -7 10 -3 15 3 5 10 7 15 3 5 -3 7 -10 3 -15z m40 0 c-3 -5 -10 -7
-15 -3 -5 3 -7 10 -3 15 3 5 10 7 15 3 5 -3 7 -10 3 -15z m40 0 c-3 -5 -10 -7
-15 -3 -5 3 -7 10 -3 15 3 5 10 7 15 3 5 -3 7 -10 3 -15z m40 0 c-3 -5 -10 -7
-15 -3 -5 3 -7 10 -3 15 3 5 10 7 15 3 5 -3 7 -10 3 -15z m40 0 c-3 -5 -10 -7
-15 -3 -5 3 -7 10 -3 15 3 5 10 7 15 3 5 -3 7 -10 3 -15z m40 0 c-3 -5 -10 -7
-15 -3 -5 3 -7 10 -3 15 3 5 10 7 15 3 5 -3 7 -10 3 -15z m40 0 c-3 -5 -10 -7
-15 -3 -5 3 -7 10 -3 15 3 5 10 7 15 3 5 -3 7 -10 3 -15z m40 0 c-3 -5 -10 -7
-15 -3 -5 3 -7 10 -3 15 3 5 10 7 15 3 5 -3 7 -10 3 -15z m40 0 c-3 -5 -10 -7
-15 -3 -5 3 -7 10 -3 15 3 5 10 7 15 3 5 -3 7 -10 3 -15z m40 0 c-3 -5 -10 -7
-15 -3 -5 3 -7 10 -3 15 3 5 10 7 15 3 5 -3 7 -10 3 -15z m40 0 c-3 -5 -10 -7
-15 -3 -5 3 -7 10 -3 15 3 5 10 7 15 3 5 -3 7 -10 3 -15z m40 0 c-3 -5 -10 -7
-15 -3 -5 3 -7 10 -3 15 3 5 10 7 15 3 5 -3 7 -10 3 -15z m40 0 c-3 -5 -10 -7
-15 -3 -5 3 -7 10 -3 15 3 5 10 7 15 3 5 -3 7 -10 3 -15z m40 0 c-3 -5 -10 -7
-15 -3 -5 3 -7 10 -3 15 3 5 10 7 15 3 5 -3 7 -10 3 -15z m40 0 c-3 -5 -10 -7
-15 -3 -5 3 -7 10 -3 15 3 5 10 7 15 3 5 -3 7 -10 3 -15z m40 0 c-3 -5 -10 -7
-15 -3 -5 3 -7 10 -3 15 3 5 10 7 15 3 5 -3 7 -10 3 -15z m40 0 c-3 -5 -10 -7
-15 -3 -5 3 -7 10 -3 15 3 5 10 7 15 3 5 -3 7 -10 3 -15z m40 0 c-3 -5 -10 -7
-15 -3 -5 3 -7 10 -3 15 3 5 10 7 15 3 5 -3 7 -10 3 -15z m40 0 c-3 -5 -10 -7
-15 -3 -5 3 -7 10 -3 15 3 5 10 7 15 3 5 -3 7 -10 3 -15z m40 0 c-3 -5 -10 -7
-15 -3 -5 3 -7 10 -3 15 3 5 10 7 15 3 5 -3 7 -10 3 -15z m40 0 c-3 -5 -10 -7
-15 -3 -5 3 -7 10 -3 15 3 5 10 7 15 3 5 -3 7 -10 3 -15z m40 0 c-3 -5 -10 -7
-15 -3 -5 3 -7 10 -3 15 3 5 10 7 15 3 5 -3 7 -10 3 -15z m40 0 c-3 -5 -10 -7
-15 -3 -5 3 -7 10 -3 15 3 5 10 7 15 3 5 -3 7 -10 3 -15z m40 0 c-3 -5 -10 -7
-15 -3 -5 3 -7 10 -3 15 3 5 10 7 15 3 5 -3 7 -10 3 -15z m40 0 c-3 -5 -10 -7
-15 -3 -5 3 -7 10 -3 15 3 5 10 7 15 3 5 -3 7 -10 3 -15z m40 0 c-3 -5 -10 -7
-15 -3 -5 3 -7 10 -3 15 3 5 10 7 15 3 5 -3 7 -10 3 -15z m40 0 c-3 -5 -10 -7
-15 -3 -5 3 -7 10 -3 15 3 5 10 7 15 3 5 -3 7 -10 3 -15z m40 0 c-3 -5 -10 -7
-15 -3 -5 3 -7 10 -3 15 3 5 10 7 15 3 5 -3 7 -10 3 -15z m40 0 c-3 -5 -10 -7
-15 -3 -5 3 -7 10 -3 15 3 5 10 7 15 3 5 -3 7 -10 3 -15z m40 0 c-3 -5 -10 -7
-15 -3 -5 3 -7 10 -3 15 3 5 10 7 15 3 5 -3 7 -10 3 -15z m40 0 c-3 -5 -10 -7
-15 -3 -5 3 -7 10 -3 15 3 5 10 7 15 3 5 -3 7 -10 3 -15z"/>
<path d="M11647 7063 c-4 -3 -7 -16 -6 -27 0 -21 1 -21 9 -1 8 18 10 16 14
-14 0 -5 4 -13 8 -16 4 -4 5 5 2 21 -6 33 -17 48 -27 37z"/>
<path d="M4230 7045 c5 -7 8 -14 5 -17 -3 -2 2 -5 9 -5 8 0 14 3 13 6 -1 3 3
6 8 6 6 0 9 -4 7 -9 -2 -5 4 -3 13 4 20 17 12 24 -30 25 -25 1 -32 -2 -25 -10z"/>
<path d="M4430 7045 c5 -7 8 -14 5 -17 -3 -2 2 -5 9 -5 8 0 14 3 13 6 -1 3 3
6 8 6 6 0 9 -4 7 -9 -2 -5 4 -3 13 4 20 17 12 24 -30 25 -25 1 -32 -2 -25 -10z"/>
<path d="M4630 7045 c5 -7 8 -14 5 -17 -3 -2 2 -5 9 -5 8 0 14 3 13 6 -1 3 3
6 8 6 6 0 9 -4 7 -9 -2 -5 4 -3 13 4 20 17 12 24 -30 25 -25 1 -32 -2 -25 -10z"/>
<path d="M4830 7045 c5 -7 8 -14 5 -17 -3 -2 2 -5 9 -5 8 0 14 3 13 6 -1 3 3
6 8 6 6 0 9 -4 7 -9 -2 -5 4 -3 13 4 20 17 12 24 -30 25 -25 1 -32 -2 -25 -10z"/>
<path d="M5030 7045 c5 -7 8 -14 5 -17 -3 -2 2 -5 9 -5 8 0 14 3 13 6 -1 3 3
6 8 6 6 0 9 -4 7 -9 -2 -5 4 -3 13 4 20 17 12 24 -30 25 -25 1 -32 -2 -25 -10z"/>
<path d="M5230 7045 c5 -7 8 -14 5 -17 -3 -2 2 -5 9 -5 8 0 14 3 13 6 -1 3 3
6 8 6 6 0 9 -4 7 -9 -2 -5 4 -3 13 4 20 17 12 24 -30 25 -25 1 -32 -2 -25 -10z"/>
<path d="M5430 7045 c5 -7 8 -14 5 -17 -3 -2 2 -5 9 -5 8 0 14 3 13 6 -1 3 3
6 8 6 6 0 9 -4 7 -9 -2 -5 4 -3 13 4 20 17 12 24 -30 25 -25 1 -32 -2 -25 -10z"/>
<path d="M5630 7045 c5 -7 8 -14 5 -17 -3 -2 2 -5 9 -5 8 0 14 3 13 6 -1 3 3
6 8 6 6 0 9 -4 7 -9 -2 -5 4 -3 13 4 20 17 12 24 -30 25 -25 1 -32 -2 -25 -10z"/>
<path d="M5830 7045 c5 -7 8 -14 5 -17 -3 -2 2 -5 9 -5 8 0 14 3 13 6 -1 3 3
6 8 6 6 0 9 -4 7 -9 -2 -5 4 -3 13 4 20 17 12 24 -30 25 -25 1 -32 -2 -25 -10z"/>
<path d="M9140 7026 c0 -2 8 -10 18 -17 15 -13 16 -12 3 4 -13 16 -21 21 -21
13z"/>
<path d="M3876 6982 c-3 -5 1 -9 9 -9 8 0 12 4 9 9 -3 4 -7 8 -9 8 -2 0 -6 -4
-9 -8z"/>
<path d="M7766 6855 c-4 -11 -20 -15 -56 -15 -34 0 -49 -4 -47 -12 5 -28 28
-39 75 -37 47 2 48 3 50 35 3 35 -12 54 -22 29z"/>
<path d="M7554 6824 c5 -13 0 -16 -33 -12 -28 2 -37 0 -34 -9 5 -13 104 -19
115 -7 14 14 -6 44 -29 44 -19 0 -24 -4 -19 -16z"/>
<path d="M7792 6680 c-2 -33 1 -40 17 -40 20 0 22 14 7 39 -7 10 -5 12 5 7 8
-4 6 -1 -3 7 -10 8 -15 17 -11 20 3 4 2 7 -4 7 -5 0 -10 -18 -11 -40z"/>
<path d="M7776 6535 c-4 -11 -4 -16 0 -12 4 4 12 2 19 -3 8 -7 12 -5 12 5 0 8
-4 12 -8 9 -4 -2 -9 1 -11 8 -3 7 -7 4 -12 -7z"/>
<path d="M7480 6521 c0 -4 -12 -6 -26 -3 -19 3 -25 1 -20 -7 4 -6 1 -11 -8
-11 -11 0 -16 -9 -16 -27 0 -22 2 -25 10 -13 8 12 10 11 10 -7 0 -13 -4 -23
-9 -23 -11 0 -13 -163 -1 -170 4 -3 47 -4 94 -2 l86 3 0 45 c0 34 -4 44 -16
44 -9 0 -14 6 -11 13 3 9 -5 14 -25 15 -21 2 -27 -1 -22 -10 5 -8 1 -7 -11 2
-17 14 -18 13 -12 -2 3 -10 2 -18 -3 -18 -6 0 -10 11 -10 25 0 14 5 25 10 25
6 0 10 10 10 23 0 12 7 31 15 41 15 20 12 36 -7 36 -5 0 -8 -7 -4 -15 4 -10
-1 -15 -15 -15 -11 0 -17 -4 -14 -10 3 -5 2 -10 -3 -10 -5 0 -9 11 -9 25 0 13
3 23 6 21 4 -3 8 4 8 15 1 10 0 19 -3 19 -2 0 -4 -4 -4 -9z m24 -200 c4 -5 -1
-8 -9 -7 -21 3 -31 16 -12 16 9 0 18 -4 21 -9z"/>
<path d="M7716 6503 c9 -7 21 -10 25 -7 5 3 9 -4 9 -15 0 -11 5 -23 10 -26 6
-3 10 -17 10 -31 0 -13 5 -24 11 -24 5 0 7 -4 4 -10 -3 -5 -24 -10 -46 -10
-28 0 -39 -4 -39 -15 0 -14 -12 -19 -32 -16 -5 0 -8 -15 -8 -34 0 -28 4 -35
20 -35 11 0 20 -4 20 -10 0 -14 87 -13 92 2 3 8 11 7 28 -5 14 -9 20 -17 14
-17 -5 0 -16 6 -24 13 -12 10 -12 9 -2 -4 6 -9 8 -20 4 -24 -4 -5 -2 -5 5 -1
8 4 12 -6 11 -34 0 -22 4 -46 10 -53 11 -13 13 -56 2 -55 -28 2 -50 -5 -50
-16 0 -8 -4 -16 -8 -18 -4 -1 -18 -18 -31 -35 -12 -18 -29 -33 -37 -33 -8 0
-14 -4 -14 -8 0 -5 -24 -9 -52 -11 -29 -1 -57 -7 -63 -13 -7 -7 -6 -9 2 -4 6
3 13 2 15 -4 1 -5 18 -10 36 -12 17 -1 32 -7 32 -13 0 -6 3 -7 8 0 7 10 24 16
54 18 9 1 14 5 11 10 -3 5 0 13 8 17 16 10 52 -7 44 -21 -4 -5 -1 -9 5 -9 7 0
10 7 6 15 -4 11 1 15 19 15 20 0 25 -5 25 -25 0 -18 -5 -25 -20 -25 -23 0 -27
-35 -7 -61 14 -19 14 -19 72 -19 35 0 43 -3 39 -15 -4 -8 -10 -15 -16 -15 -5
0 -7 4 -4 8 3 5 -1 9 -8 9 -7 0 -13 -6 -13 -12 0 -17 33 -13 57 7 11 10 20 13
20 7 0 -5 3 -8 8 -6 4 3 21 -6 37 -20 17 -14 24 -22 18 -19 -7 4 -13 2 -13 -3
0 -6 9 -11 20 -11 11 0 20 -5 20 -11 0 -7 10 -9 25 -7 18 4 34 -3 59 -28 19
-19 30 -34 24 -34 -7 0 -4 -6 7 -13 12 -10 15 -19 9 -28 -12 -20 -14 -38 -3
-45 5 -3 6 -10 3 -16 -4 -7 -2 -8 5 -4 9 6 10 0 5 -21 -4 -15 -11 -29 -16 -31
-4 -2 -8 -8 -8 -14 0 -6 -8 -18 -18 -27 -9 -9 -24 -25 -32 -35 -13 -18 -13
-19 0 -11 12 6 12 5 3 -5 -13 -14 -48 -6 -38 10 12 20 -31 9 -50 -12 -10 -13
-18 -24 -17 -25 1 -2 2 -12 2 -24 0 -13 -4 -18 -12 -13 -10 6 -10 4 0 -7 18
-20 15 -53 -8 -69 -11 -8 -20 -20 -20 -26 0 -7 -4 -14 -9 -16 -5 -1 -11 -28
-13 -60 -1 -31 -6 -54 -10 -52 -5 3 -8 -2 -8 -10 0 -9 -4 -16 -10 -16 -5 0
-10 -7 -10 -15 0 -8 -7 -15 -16 -15 -8 0 -13 -4 -9 -9 3 -5 1 -12 -4 -15 -5
-4 -8 -18 -5 -32 3 -18 1 -23 -7 -18 -8 4 -9 3 -5 -4 4 -6 13 -9 21 -6 9 4 17
-1 21 -12 3 -11 14 -36 25 -57 26 -53 24 -67 -7 -67 -19 0 -25 -4 -21 -15 4
-8 1 -17 -5 -21 -6 -4 -8 -3 -5 2 3 6 2 16 -2 22 -4 7 -8 -3 -8 -25 0 -21 2
-32 5 -25 2 6 8 12 13 12 6 0 7 -4 4 -10 -3 -5 0 -10 8 -10 8 0 17 -7 20 -14
4 -10 1 -13 -7 -10 -7 3 -13 -1 -14 -8 -6 -46 -10 -60 -20 -70 -9 -9 -11 -6
-7 10 2 12 7 28 10 35 4 6 0 4 -8 -5 -8 -10 -17 -15 -20 -11 -4 3 -5 -4 -2
-15 2 -12 -1 -25 -7 -28 -7 -4 -8 -2 -4 4 4 7 2 12 -3 12 -6 0 -11 -7 -11 -15
0 -25 -1 -29 -13 -44 -7 -8 -7 -12 -2 -9 6 3 11 -7 12 -23 1 -16 -2 -29 -7
-29 -6 0 -10 7 -10 15 0 8 -9 15 -20 15 -15 0 -20 -7 -20 -25 0 -14 -4 -25
-10 -25 -16 0 -12 -26 7 -41 13 -11 17 -11 20 -1 3 6 13 12 24 12 10 0 19 7
19 15 0 10 11 15 35 15 19 0 35 5 35 10 0 6 18 10 41 10 28 0 38 -4 33 -12 -4
-6 -3 -8 4 -5 5 4 8 15 6 25 -3 10 4 22 17 30 14 9 19 10 14 2 -4 -7 4 -5 17
4 14 9 28 13 33 9 4 -5 5 -2 1 5 -4 7 -13 9 -19 6 -7 -4 -8 -3 -4 2 5 5 14 9
20 9 15 0 16 25 2 26 -5 0 -17 7 -27 15 -14 14 -17 14 -27 -3 -6 -10 -11 -12
-11 -5 0 6 -5 12 -11 12 -5 0 -8 -4 -5 -8 3 -5 -1 -9 -9 -9 -8 0 -15 4 -15 9
0 4 5 8 10 8 6 0 10 8 10 18 0 9 4 13 8 7 9 -12 52 -16 52 -4 0 5 5 9 11 9 13
0 39 25 39 38 0 5 10 13 23 17 20 7 19 8 -10 12 -30 4 -39 15 -34 46 0 4 -4 7
-10 7 -14 0 -39 25 -39 39 0 6 -5 11 -12 11 -9 0 -9 3 0 12 7 7 12 17 12 23 0
5 -5 3 -10 -5 -7 -11 -10 -12 -10 -2 0 8 9 16 20 19 21 6 22 24 2 59 -6 12 -8
24 -5 28 3 3 1 6 -5 6 -8 0 -12 23 -12 68 0 54 4 73 20 90 21 22 27 62 10 62
-5 0 -10 7 -10 15 0 8 5 15 10 15 6 0 10 9 10 20 0 11 7 20 15 20 8 0 15 5 15
11 0 5 -6 7 -12 4 -7 -4 -2 3 12 14 14 11 28 21 33 21 4 0 7 5 7 11 0 20 26
38 41 28 12 -7 12 -9 -1 -9 -13 0 -13 -1 0 -10 13 -9 13 -10 0 -10 -12 0 -13
-2 -1 -9 9 -6 10 -10 2 -14 -7 -3 -7 -5 1 -3 9 2 14 28 16 82 2 43 8 82 14 85
6 4 8 14 5 23 -4 9 0 19 9 24 18 10 23 114 5 120 -6 2 -11 14 -11 26 0 12 -9
28 -20 36 -11 8 -20 20 -20 28 0 7 -4 11 -8 8 -10 -6 -72 48 -72 63 0 6 -5 11
-11 11 -13 0 -39 25 -39 39 0 5 -9 16 -20 24 -11 8 -17 17 -14 20 4 4 -1 9
-10 13 -9 3 -16 15 -16 26 0 10 -4 16 -10 13 -5 -3 -10 1 -10 9 0 9 -9 31 -20
51 -11 20 -20 44 -20 55 0 11 -7 20 -15 20 -15 0 -19 10 -15 44 1 10 -2 16 -7
13 -5 -3 -9 5 -9 18 0 13 4 21 8 19 10 -6 11 20 1 30 -11 10 -12 37 -2 30 5
-3 9 -1 9 5 0 5 -5 11 -11 13 -5 2 -11 11 -13 20 -1 10 -5 21 -9 24 -4 4 -7
18 -7 31 0 17 -4 22 -12 17 -8 -5 -7 0 2 11 8 10 10 16 5 13 -17 -10 -36 7
-29 25 3 9 10 17 16 17 5 0 6 -5 2 -12 -4 -7 -3 -8 4 -4 16 10 15 46 0 46 -9
0 -8 4 2 10 13 9 13 10 0 10 -20 -1 -50 -24 -50 -39 0 -7 -10 -1 -23 13 -13
14 -33 24 -46 23 -20 -1 -21 -2 -5 -14z m121 -458 c8 -8 18 -13 22 -11 4 3 8
-1 8 -9 0 -8 -4 -12 -9 -9 -4 3 -8 -2 -8 -10 0 -9 -9 -16 -20 -16 -16 0 -20 7
-20 35 0 39 4 42 27 20z m-3 -171 c3 -8 2 -12 -4 -9 -6 3 -10 10 -10 16 0 14
7 11 14 -7z m24 -15 c-3 -8 -7 -3 -11 10 -4 17 -3 21 5 13 5 -5 8 -16 6 -23z
m116 -1045 c3 -8 2 -12 -4 -9 -6 3 -10 10 -10 16 0 14 7 11 14 -7z m2 -41 c-2
-9 -9 -19 -17 -21 -11 -3 -11 -1 1 7 8 6 11 11 7 11 -5 0 -5 5 -2 10 9 15 14
12 11 -7z m79 -83 c3 -5 1 -10 -4 -10 -6 0 -11 5 -11 10 0 6 2 10 4 10 3 0 8
-4 11 -10z"/>
<path d="M2321 6283 c1 -4 0 -10 -1 -13 -7 -19 -7 -41 1 -46 5 -3 9 -2 8 3 -1
4 0 10 1 13 7 19 7 41 -1 46 -5 3 -9 2 -8 -3z"/>
<path d="M2259 6276 c-8 -9 -4 -38 6 -46 10 -9 13 -7 10 7 -1 10 1 23 6 29 5
7 3 11 -6 11 -8 0 -15 -1 -16 -1z"/>
<path d="M2466 6273 c-4 -5 -17 -8 -29 -8 -13 0 -22 -6 -22 -15 0 -10 -10 -15
-32 -15 -18 0 -33 -4 -33 -10 0 -5 21 -10 48 -10 26 0 53 -4 61 -9 10 -6 12
-5 7 2 -4 7 -3 12 3 12 5 0 12 -4 15 -9 4 -5 14 -8 24 -6 9 1 22 -2 29 -7 7
-6 14 -5 18 3 6 8 10 7 16 -2 7 -12 9 -12 9 0 0 11 3 11 17 0 11 -10 14 -10 9
-1 -4 6 -2 12 3 12 6 0 11 -5 11 -12 0 -17 10 -4 14 19 3 12 -1 20 -9 20 -8 0
-12 -4 -10 -8 3 -4 -2 -10 -11 -13 -11 -4 -15 -2 -11 7 3 8 -1 14 -8 14 -7 0
-11 -6 -9 -12 3 -6 -2 -12 -11 -12 -9 0 -14 6 -11 12 2 6 -2 12 -9 12 -7 0
-11 -6 -9 -12 3 -6 -2 -12 -11 -12 -9 0 -14 6 -11 12 2 6 -2 12 -9 12 -7 0
-11 -7 -8 -15 5 -12 3 -12 -15 -1 -11 7 -18 18 -14 24 7 10 12 35 8 35 -2 0
-6 -3 -10 -7z m-6 -28 c-6 -7 -8 -14 -5 -16 2 -3 -7 -5 -20 -5 -17 0 -21 3
-15 11 6 7 8 14 5 16 -2 3 7 5 20 5 17 0 21 -3 15 -11z"/>
<path d="M2806 6273 c-4 -5 -12 -8 -18 -8 -6 0 -12 -8 -14 -19 -1 -10 -8 -24
-15 -30 -9 -8 -11 -7 -6 5 3 9 0 16 -8 16 -7 0 -11 -6 -9 -12 3 -6 -2 -12 -11
-12 -9 0 -14 6 -11 12 2 6 -2 12 -9 12 -8 0 -11 -7 -7 -16 3 -9 2 -13 -3 -9
-4 4 -14 3 -22 -3 -15 -13 -18 2 -3 17 7 7 6 11 -3 11 -8 0 -14 -5 -14 -11 0
-6 -4 -20 -8 -31 -5 -16 -5 -17 4 -5 9 13 11 13 11 1 0 -11 4 -10 16 5 11 13
14 14 11 3 -3 -9 1 -16 8 -16 7 0 11 7 9 16 -4 14 -3 13 7 -1 12 -15 14 -15
27 0 13 16 13 16 8 -1 -3 -10 -2 -16 3 -12 5 3 12 -1 15 -7 3 -7 3 -2 -1 12
-5 22 -4 23 10 11 9 -7 15 -17 12 -21 -6 -10 15 -8 32 3 6 4 13 4 16 0 2 -5 2
-3 1 4 -2 6 4 17 12 23 12 11 13 7 9 -21 -4 -29 -3 -30 4 -9 6 16 9 19 10 8 1
-9 5 -20 11 -23 5 -3 7 0 4 8 -2 7 -1 25 5 39 7 18 6 25 -4 25 -7 0 -11 -9 -8
-21 3 -20 3 -20 -8 1 -11 21 -13 22 -26 5 -12 -14 -14 -14 -10 -1 3 9 -1 16
-8 16 -10 0 -11 -5 -4 -18 5 -10 5 -20 0 -23 -5 -3 -12 5 -15 19 -7 26 -5 41
5 38 3 -1 6 5 6 13 0 16 -1 17 -11 7z m-7 -65 c11 -30 11 -31 -8 -14 -11 10
-17 24 -14 32 7 20 10 18 22 -18z"/>
<path d="M2966 6273 c-4 -5 -13 -8 -19 -8 -7 0 -11 -13 -10 -30 2 -27 1 -28
-11 -12 -13 16 -15 16 -24 -12 -9 -24 -7 -32 6 -43 10 -8 13 -9 9 -1 -4 6 -3
14 3 18 9 5 14 -7 11 -27 -1 -8 20 -5 36 5 6 4 13 4 16 0 2 -5 2 -3 1 4 -2 7
1 15 6 18 6 4 10 -4 11 -17 1 -23 1 -23 9 2 8 26 9 26 15 -3 2 -11 6 -22 10
-25 3 -4 4 6 1 21 -2 14 -1 29 4 32 5 3 10 -7 12 -21 2 -16 10 -28 20 -30 11
-1 15 3 11 14 -4 14 -2 14 10 -1 15 -18 15 -18 22 2 3 12 4 25 0 30 -3 5 -1
12 4 15 13 8 20 -41 7 -54 -6 -7 -7 -11 -1 -10 6 2 12 1 15 0 19 -7 41 -7 46
1 3 6 12 5 21 -3 23 -19 42 -19 36 0 -3 10 4 6 16 -8 11 -14 21 -21 21 -16 0
5 7 3 15 -4 8 -7 15 -9 15 -6 0 15 61 -37 75 -64 22 -42 18 -73 -11 -101 l-26
-24 -1271 -5 c-1368 -5 -1296 -2 -1376 -56 -34 -23 -91 -96 -91 -117 0 -9 563
-6 1275 8 370 7 801 14 1335 21 261 4 476 7 477 8 1 1 15 319 17 414 1 28 0
52 -3 52 -2 0 -10 -8 -18 -17 -12 -15 -14 -15 -10 -2 3 9 -1 16 -8 16 -7 0
-11 -6 -9 -12 3 -6 -2 -12 -11 -12 -9 0 -14 6 -11 12 2 6 -2 12 -9 12 -7 0
-11 -6 -9 -12 3 -6 -2 -12 -11 -12 -9 0 -14 6 -11 12 2 6 -2 12 -9 12 -7 0
-11 -6 -9 -12 3 -6 -2 -12 -11 -12 -9 0 -14 6 -11 12 2 6 -2 12 -9 12 -7 0
-11 -6 -9 -12 3 -6 -2 -12 -11 -12 -9 0 -14 6 -11 12 2 6 -2 12 -9 12 -7 0
-11 -7 -8 -16 4 -13 2 -13 -10 1 -13 17 -15 16 -26 -5 -11 -21 -11 -21 -8 -1
3 12 -1 21 -8 21 -10 0 -11 -7 -4 -24 14 -36 9 -52 -5 -19 -13 28 -13 28 -19
5 -3 -13 -9 -21 -12 -17 -3 3 -1 16 4 30 7 19 6 25 -4 25 -8 0 -12 -4 -9 -9 8
-13 -6 -49 -17 -42 -6 4 -6 11 1 19 7 9 7 15 1 19 -5 4 -8 16 -6 28 4 17 2 19
-8 9 -6 -6 -12 -16 -12 -22 0 -5 -4 -9 -10 -9 -5 0 -10 4 -10 10 0 5 -7 15
-15 22 -12 11 -12 11 -2 -3 10 -13 9 -19 -4 -30 -13 -11 -15 -10 -12 3 1 9 -1
17 -7 17 -5 0 -9 -6 -7 -13 1 -7 -5 -13 -13 -13 -10 0 -13 8 -10 25 2 13 1 21
-3 17 -4 -3 -8 -19 -8 -33 -2 -38 -5 -40 -14 -12 -7 22 -8 23 -9 4 -1 -12 -8
-27 -16 -34 -15 -12 -22 0 -8 14 4 3 8 14 9 22 1 9 0 13 -3 10 -4 -3 -15 2
-25 11 -15 14 -19 14 -16 3 2 -10 -5 -15 -19 -14 -13 1 -20 -2 -18 -7 3 -4 1
-10 -4 -13 -5 -4 -12 2 -14 11 -4 17 -5 17 -6 0 0 -10 -6 -15 -11 -12 -6 4 -8
10 -6 14 3 4 -1 8 -9 8 -8 0 -14 -3 -13 -6 0 -3 0 -13 -2 -21 -1 -11 -4 -9
-10 5 -8 18 -9 18 -9 2 -1 -10 -5 -16 -10 -12 -6 3 -8 14 -6 25 2 11 -1 22 -6
26 -5 3 -8 0 -7 -8 2 -7 -3 -12 -9 -10 -7 1 -12 -1 -12 -5 1 -5 1 -17 0 -28
-1 -16 -3 -17 -10 -6 -5 8 -7 19 -5 26 3 6 -2 18 -10 25 -9 7 -13 16 -10 21 6
11 0 12 -10 2z m10 -26 c18 -10 14 -54 -6 -72 -17 -16 -19 -15 -30 5 -9 16
-14 19 -25 10 -11 -9 -12 -7 -8 10 4 15 9 18 18 10 16 -13 26 0 20 28 -3 20 9
24 31 9z m233 -43 c-7 -9 -7 -19 1 -33 12 -23 22 -28 14 -8 -3 8 2 19 10 26
12 10 17 6 30 -20 22 -44 20 -60 -3 -25 -11 17 -17 34 -14 39 3 6 1 7 -6 3 -6
-4 -9 -12 -6 -17 4 -5 2 -16 -3 -25 -8 -15 -11 -14 -26 8 -9 14 -15 36 -13 49
2 13 2 18 0 11 -4 -11 -8 -11 -21 0 -13 11 -14 11 -7 -1 5 -9 4 -12 -3 -7 -11
6 -11 -12 0 -29 4 -6 3 -17 -3 -25 -5 -8 -9 -13 -10 -10 -8 44 -8 64 2 76 6 7
15 12 19 9 5 -3 12 -1 15 5 5 8 11 7 21 -1 10 -8 11 -15 3 -25z m-173 11 c-3
-20 -16 -31 -16 -13 0 13 8 28 16 28 1 0 1 -7 0 -15z m306 -26 c-5 -34 -20
-22 -16 14 3 29 3 29 12 23 5 -3 7 -19 4 -37z m42 20 c-3 -5 -9 -7 -13 -5 -4
3 -7 -16 -6 -41 0 -36 4 -47 18 -49 9 -1 15 1 12 5 -2 4 2 8 10 8 8 0 12 -4
10 -8 -3 -4 3 -6 12 -5 10 2 19 9 19 17 3 31 6 33 14 9 8 -24 8 -24 7 5 -1 40
12 77 24 69 7 -4 7 -10 0 -18 -5 -6 -9 -27 -9 -46 1 -19 3 -29 6 -21 4 11 6
11 13 0 6 -9 9 -10 9 -2 0 6 -4 15 -10 18 -5 3 -10 16 -10 27 0 19 14 18 16 0
1 -13 24 -62 28 -62 2 0 2 10 -2 22 -3 14 -2 19 7 14 6 -4 9 -11 6 -16 -3 -5
0 -12 6 -16 7 -4 9 -3 6 3 -7 11 22 11 41 -1 7 -4 12 -2 12 6 0 9 3 9 10 -2 9
-13 10 -13 10 0 0 12 2 12 9 2 12 -20 23 -14 45 20 17 27 17 31 3 45 -14 14
-17 12 -32 -17 -20 -39 -30 -34 -13 6 7 16 20 29 28 29 8 -1 20 2 25 6 6 5 10
-8 11 -32 0 -21 -3 -39 -7 -39 -4 0 -6 -8 -5 -17 1 -12 -7 -18 -24 -18 -16 -1
-24 -6 -22 -15 2 -10 -3 -8 -18 5 -27 24 -23 24 -51 0 -15 -13 -19 -14 -11 -3
12 15 10 16 -15 14 -15 -1 -33 -5 -40 -9 -6 -4 -14 -3 -17 2 -7 10 -25 9 -43
-2 -6 -4 -15 -3 -18 3 -5 8 -11 8 -20 0 -10 -8 -15 -8 -20 0 -5 8 -10 8 -20 0
-9 -8 -15 -8 -20 0 -3 6 -10 8 -15 5 -5 -3 -11 -1 -15 5 -4 6 -10 8 -15 5 -5
-3 -17 12 -26 32 -10 21 -19 41 -21 44 -1 4 5 13 14 20 14 12 15 11 9 -8 -4
-13 -2 -32 6 -45 7 -13 12 -26 11 -29 -1 -3 4 -6 11 -6 8 0 13 7 11 16 -1 9
-8 15 -15 13 -8 -2 -10 3 -6 13 3 9 2 13 -4 10 -6 -3 -10 1 -10 10 0 9 4 13
10 10 6 -4 7 1 3 11 -4 12 -3 15 6 10 7 -5 10 -14 7 -21 -2 -7 2 -22 11 -34 8
-12 12 -29 9 -37 -3 -8 -2 -13 3 -10 5 3 9 24 9 47 1 42 17 73 33 63 5 -3 7
-10 3 -15z m-276 -27 c3 -25 2 -26 -13 -11 -9 9 -13 23 -9 33 8 22 17 13 22
-22z m421 -20 c1 -7 -4 -10 -9 -7 -6 4 -8 10 -5 15 3 5 1 11 -5 15 -6 4 -7 11
-3 18 7 11 21 -15 22 -41z m51 18 c0 -15 3 -30 7 -33 11 -11 32 14 26 30 -5
12 -3 14 7 8 9 -5 11 -4 6 4 -10 15 -29 3 -22 -15 3 -7 1 -16 -4 -19 -6 -4
-10 7 -10 22 0 24 4 29 26 29 21 0 24 -3 19 -20 -4 -12 -7 -28 -8 -37 -1 -11
-11 -15 -36 -15 -27 1 -38 7 -48 26 -19 36 -16 46 12 46 20 0 25 -5 25 -26z
m-507 7 c3 -8 1 -20 -4 -28 -6 -10 -9 -7 -9 14 0 29 5 35 13 14z m106 -41 c-9
-8 -10 -7 -6 6 3 10 2 20 -4 23 -5 4 -6 11 -3 17 5 7 11 2 16 -12 6 -15 5 -27
-3 -34z m207 9 c-4 -40 -17 -43 -14 -3 1 20 5 35 9 32 4 -2 6 -16 5 -29z m54
1 c-4 -4 -6 -15 -3 -24 4 -10 2 -13 -5 -8 -9 5 -10 25 -3 66 1 3 6 -2 11 -10
5 -9 5 -19 0 -24z m241 -5 c-7 -12 -18 -21 -26 -21 -12 0 -11 5 3 30 19 32 40
24 23 -9z m-269 -6 c-11 -21 -25 -4 -16 20 4 10 10 13 16 7 7 -7 7 -16 0 -27z
m-18 -63 c3 -5 -1 -9 -9 -9 -8 0 -12 4 -9 9 3 4 7 8 9 8 2 0 6 -4 9 -8z m40 0
c3 -5 -1 -9 -9 -9 -8 0 -12 4 -9 9 3 4 7 8 9 8 2 0 6 -4 9 -8z"/>
<path d="M2956 6213 c-11 -14 -13 -23 -6 -18 10 6 12 4 6 -11 -5 -14 -4 -16 4
-8 9 9 25 65 18 64 -2 0 -12 -12 -22 -27z"/>
<path d="M3496 6108 c3 -5 10 -6 15 -3 13 9 11 12 -6 12 -8 0 -12 -4 -9 -9z"/>
<path d="M3544 6189 c-5 -8 -3 -9 6 -4 9 6 12 4 8 -7 -4 -8 -3 -21 2 -27 5 -9
8 -4 8 13 0 30 -13 42 -24 25z"/>
<path d="M11926 6273 c-4 -5 -13 -8 -19 -8 -7 0 -12 -10 -12 -22 0 -12 -3 -25
-7 -29 -5 -4 -8 0 -8 9 0 9 -4 18 -9 21 -5 4 -7 -4 -4 -16 3 -17 2 -19 -5 -9
-8 11 -11 10 -15 -5 -5 -17 -3 -61 3 -74 2 -5 3 -25 8 -192 l2 -78 1610 0
c1469 0 1610 1 1610 16 0 9 -7 30 -15 48 -31 66 79 61 -1460 66 -1343 5 -1402
6 -1429 24 -16 10 -33 31 -39 47 -6 16 -15 29 -19 29 -4 0 -5 13 -2 29 4 17 1
32 -6 36 -8 5 -6 13 7 28 10 11 12 17 6 13 -8 -4 -13 -1 -13 8 0 9 -7 16 -16
16 -8 0 -13 4 -10 9 3 5 -1 14 -8 20 -10 9 -16 9 -21 1 -4 -6 -3 -9 2 -8 4 2
9 -1 10 -7 0 -5 -3 -9 -8 -7 -5 1 -8 -2 -6 -7 1 -5 -2 -9 -8 -9 -5 0 -9 3 -8
7 1 4 -4 8 -12 8 -8 0 -12 -9 -9 -24 3 -15 1 -22 -6 -18 -5 3 -11 16 -11 28
-1 16 -3 17 -6 5 -2 -9 3 -28 13 -43 9 -14 14 -28 12 -31 -7 -7 -39 44 -41 65
0 10 -7 18 -14 18 -6 0 -10 -4 -7 -8 2 -4 0 -10 -5 -13 -5 -4 -11 2 -14 11 -2
10 -4 3 -4 -15 0 -39 -12 -56 -14 -19 -1 15 -2 35 -2 45 -1 9 4 16 9 15 6 -1
11 5 11 13 0 16 -1 17 -11 7z m150 -70 c-2 -16 -5 -36 -5 -46 -1 -10 -5 -16
-10 -12 -6 3 -6 18 -1 35 5 19 5 28 -1 25 -5 -4 -9 -12 -9 -18 0 -7 -9 -30
-20 -52 -15 -29 -20 -34 -20 -18 0 12 4 24 9 27 5 4 8 22 7 41 -3 27 0 33 9
25 9 -7 16 -6 25 5 18 21 21 19 16 -12z m-163 -23 c6 -31 5 -33 -7 -17 -8 10
-13 26 -11 35 2 9 4 19 4 21 2 11 9 -7 14 -39z m77 -10 c11 -17 14 -33 9 -50
l-7 -25 -2 25 c-1 14 -2 29 -1 33 1 5 -3 6 -7 3 -5 -3 -8 -18 -6 -33 l4 -28
-11 28 c-8 21 -8 31 3 44 11 14 11 16 -1 8 -9 -5 -12 -4 -7 3 3 6 2 14 -4 17
-6 4 -10 3 -9 -2 1 -4 1 -10 0 -13 -1 -3 -4 -23 -6 -45 -2 -29 -1 -34 5 -20 8
17 8 16 7 -7 -1 -22 -4 -25 -16 -15 -8 7 -17 11 -20 9 -3 -2 -7 2 -9 10 -2 9
0 8 7 -2 9 -13 11 -13 11 1 0 9 -7 19 -15 23 -10 4 -15 -1 -15 -16 0 -29 -9
-18 -12 15 -1 14 -5 24 -9 22 -3 -3 -5 -17 -3 -32 2 -16 1 -21 -2 -13 -3 8 -8
22 -12 30 -3 8 -7 29 -8 45 -2 24 -1 26 5 10 5 -11 6 -27 4 -35 -4 -12 -3 -12
5 -1 5 7 7 22 4 34 -3 14 -1 18 7 13 6 -4 9 -11 6 -16 -3 -4 4 -19 14 -31 l20
-24 14 35 c19 43 30 55 36 38 2 -7 11 -24 21 -38z m109 14 c-7 -8 -6 -14 1
-19 10 -6 6 -53 -6 -64 -4 -3 -4 2 -1 11 3 10 2 20 -3 23 -5 3 -11 -3 -13 -12
-4 -19 3 41 8 67 2 8 4 20 4 25 1 6 5 3 11 -5 5 -9 5 -19 -1 -26z m-40 -67 c0
-21 -1 -21 -9 -2 -8 19 -9 19 -9 1 -1 -11 -4 -17 -7 -13 -9 9 6 48 17 42 5 -4
9 -16 8 -28z"/>
<path d="M2210 6265 c0 -2 6 -8 13 -14 10 -8 14 -7 14 2 0 8 -6 14 -14 14 -7
0 -13 -1 -13 -2z"/>
<path d="M11837 6253 c3 -7 6 -13 8 -13 2 0 5 6 8 13 3 8 -1 14 -8 14 -7 0
-11 -6 -8 -14z"/>
<path d="M2173 6247 c0 -7 11 -13 23 -13 20 0 25 11 6 11 -4 0 -12 3 -18 7 -6
4 -11 1 -11 -5z"/>
<path d="M12104 6248 c-3 -5 0 -7 8 -6 7 2 12 -4 10 -12 -2 -8 0 -11 4 -7 14
13 12 34 -3 34 -7 0 -16 -4 -19 -9z"/>
<path d="M7410 6221 c0 -7 -6 -11 -14 -8 -15 6 -16 -9 -2 -32 6 -10 5 -12 -2
-7 -9 5 -12 -6 -12 -38 0 -25 -4 -46 -10 -46 -5 0 -10 -17 -10 -37 0 -28 -3
-34 -10 -23 -7 11 -10 5 -10 -25 0 -30 -3 -36 -10 -25 -8 12 -10 10 -10 -10 0
-14 -9 -32 -20 -40 -11 -8 -20 -19 -20 -25 0 -6 -9 -17 -20 -25 -21 -15 -29
-37 -9 -24 8 4 8 0 0 -15 -7 -11 -16 -21 -22 -21 -13 0 -39 -25 -39 -37 0 -5
-9 -15 -19 -23 -11 -7 -26 -33 -32 -56 -7 -24 -16 -41 -19 -39 -5 3 -9 -13
-12 -52 -1 -7 -5 -13 -8 -13 -4 0 -8 -20 -8 -45 -1 -25 -4 -50 -7 -55 -12 -19
14 -18 31 2 11 12 14 19 8 15 -6 -3 -11 0 -11 7 0 9 7 12 16 8 9 -3 13 -2 9 3
-4 4 -2 15 5 23 8 11 8 13 0 9 -8 -5 -8 -1 0 17 7 13 14 23 17 21 3 -2 6 13 8
33 1 20 9 43 17 52 8 9 12 20 8 24 -5 4 -1 6 7 4 9 -2 14 3 12 11 -3 12 -1 12
13 1 9 -7 15 -9 14 -4 -4 21 2 35 11 29 6 -3 10 2 10 12 0 10 14 27 31 37 18
11 29 14 25 7 -6 -8 -1 -8 18 0 14 7 23 16 20 20 -3 5 13 9 35 9 23 0 41 5 41
11 0 6 6 16 13 23 15 16 36 -1 29 -24 -3 -8 -1 -12 3 -8 13 13 23 87 11 85 -6
-1 -11 10 -10 25 1 18 -3 25 -12 21 -10 -4 -14 5 -14 31 0 29 4 36 20 36 23 0
27 -15 16 -74 -3 -18 0 -26 10 -26 8 0 14 10 14 24 0 14 5 28 10 31 15 9 12
34 -5 51 -8 8 -11 22 -8 31 5 13 1 15 -21 11 -14 -3 -29 -1 -32 4 -3 4 -10 6
-15 3 -5 -4 -9 -1 -9 4 0 6 5 11 10 11 6 0 10 15 8 34 -1 19 -6 32 -10 30 -4
-3 -8 3 -8 13 0 22 -20 56 -20 34z"/>
<path d="M7145 6031 c-3 -5 -2 -12 3 -15 5 -3 9 1 9 9 0 17 -3 19 -12 6z"/>
<path d="M6975 5980 c4 -6 -10 -10 -34 -10 -46 0 -54 -16 -21 -40 11 -8 20
-25 20 -37 0 -13 5 -23 11 -23 5 0 7 5 4 10 -4 6 15 10 50 10 40 0 57 4 61 15
4 8 15 15 25 15 10 0 19 5 19 11 0 5 5 7 10 4 15 -10 12 25 -4 41 -17 16 -30
19 -21 4 4 -6 -13 -10 -44 -10 -28 0 -51 5 -51 10 0 6 -7 10 -16 10 -8 0 -12
-4 -9 -10z"/>
<path d="M7125 5980 c3 -5 10 -10 16 -10 5 0 9 5 9 10 0 6 -7 10 -16 10 -8 0
-12 -4 -9 -10z"/>
<path d="M8340 5980 c0 -5 -13 -10 -30 -10 -20 0 -30 -5 -30 -15 0 -11 -12
-15 -51 -15 -68 0 -114 -43 -51 -48 15 -1 29 -7 30 -12 5 -13 82 -13 82 0 0 6
16 10 36 10 33 0 35 2 23 17 -10 11 -10 14 -1 9 7 -4 12 -1 12 8 0 9 5 16 10
16 6 0 10 11 10 25 0 18 -5 25 -20 25 -11 0 -20 -4 -20 -10z"/>
<path d="M7793 5737 c3 -10 2 -17 -4 -17 -14 0 -39 -26 -39 -39 0 -6 -5 -11
-11 -11 -14 0 -39 -26 -39 -40 0 -6 5 -8 13 -4 8 5 8 2 -2 -9 -12 -15 -11 -17
7 -17 12 0 24 5 28 12 5 7 3 8 -7 3 -11 -7 -11 -5 1 11 8 10 23 26 32 35 10 9
18 21 18 28 0 6 5 11 10 11 14 0 13 37 -2 46 -8 5 -9 2 -5 -9z"/>
<path d="M6956 5708 c3 -4 -4 -8 -15 -8 -16 0 -21 -6 -21 -25 0 -14 -5 -25
-11 -25 -5 0 -7 -5 -3 -11 4 -7 13 -1 23 15 10 14 21 23 26 19 4 -5 5 -3 2 3
-4 7 1 18 10 25 9 8 17 12 19 9 1 -3 6 -2 10 3 4 4 -4 6 -19 5 -14 -1 -23 -6
-21 -10z"/>
<path d="M7271 5657 c-6 -8 -7 -18 -3 -22 4 -5 1 -5 -6 -1 -16 9 -29 -23 -13
-33 13 -8 18 -61 8 -78 -4 -6 0 -19 8 -29 8 -10 15 -29 15 -41 0 -13 5 -23 10
-23 6 0 10 11 10 25 0 14 5 25 10 25 6 0 10 11 10 25 0 14 -4 25 -10 25 -5 0
-10 11 -10 25 0 14 -4 25 -9 25 -11 0 -9 19 3 39 7 10 6 12 -4 6 -10 -6 -12
-1 -8 19 6 30 5 31 -11 13z"/>
<path d="M8430 5639 c0 -5 5 -7 10 -4 6 3 10 8 10 11 0 2 -4 4 -10 4 -5 0 -10
-5 -10 -11z"/>
<path d="M8459 5638 c-5 -18 -6 -38 -1 -34 7 8 12 36 6 36 -2 0 -4 -1 -5 -2z"/>
<path d="M6890 5619 c0 -5 -4 -8 -8 -5 -4 2 -9 -4 -9 -15 -1 -10 4 -19 11 -19
8 0 14 11 14 25 0 14 -2 25 -4 25 -2 0 -4 -5 -4 -11z"/>
<path d="M7290 5606 c0 -2 8 -10 18 -17 15 -13 16 -12 3 4 -13 16 -21 21 -21
13z"/>
<path d="M7583 5524 c0 -24 3 -44 9 -44 5 0 6 -4 3 -10 -3 -5 -2 -10 4 -10 5
0 14 7 19 16 8 15 10 15 15 0 4 -10 3 -15 -3 -11 -6 3 -10 -3 -10 -14 0 -12 5
-21 11 -21 5 0 7 5 4 10 -3 6 -2 10 4 10 5 0 12 -6 14 -12 3 -8 6 -6 6 5 1 9
6 17 12 17 5 0 7 5 4 10 -4 6 -10 8 -14 5 -5 -2 -16 4 -26 15 -10 11 -22 17
-26 14 -5 -3 -9 8 -9 25 0 48 -15 44 -17 -5z"/>
<path d="M7894 5496 c1 -14 -4 -20 -14 -18 -8 2 -12 0 -8 -3 4 -4 2 -17 -5
-29 -18 -32 -16 -58 4 -63 10 -3 20 -11 23 -18 6 -17 -51 -78 -58 -62 -2 7 -5
0 -5 -15 -1 -16 -5 -28 -11 -28 -5 0 -10 -20 -10 -45 0 -25 -4 -45 -9 -45 -5
0 -9 -13 -9 -30 1 -16 5 -27 10 -24 4 3 8 -16 8 -43 0 -26 5 -55 11 -63 9 -13
10 -13 8 0 -3 31 1 41 14 34 7 -5 6 0 -3 11 -9 11 -10 16 -2 11 8 -5 12 0 12
16 0 13 6 30 13 37 10 11 9 12 -2 6 -10 -6 -12 -4 -5 6 4 8 10 23 11 34 2 11
8 22 13 23 6 2 10 10 10 18 0 9 4 13 9 9 5 -3 12 -1 15 4 4 5 1 13 -5 17 -8 5
-9 3 -4 -6 5 -8 4 -11 -3 -7 -13 9 -9 36 7 47 10 5 10 9 2 15 -9 5 -9 11 0 22
10 12 10 17 -2 25 -11 8 -10 9 6 5 19 -4 21 1 24 69 2 66 0 74 -16 74 -15 0
-16 2 -3 10 11 7 11 10 2 10 -7 0 -11 4 -8 8 3 5 -1 9 -8 9 -7 0 -13 -10 -12
-21z m-7 -59 c0 -8 -6 -14 -14 -14 -9 0 -10 4 -2 14 6 7 12 13 14 13 1 0 2 -6
2 -13z"/>
<path d="M6870 5464 c0 -8 -4 -13 -8 -10 -10 6 -9 -30 1 -40 4 -4 7 -18 7 -31
0 -14 6 -23 16 -23 9 0 13 -5 9 -12 -4 -7 1 -4 9 6 18 22 23 111 6 101 -5 -3
-10 1 -10 9 0 9 -7 16 -15 16 -8 0 -15 -7 -15 -16z"/>
<path d="M8475 5471 c3 -5 -4 -11 -16 -13 -15 -2 -23 -11 -26 -28 -2 -19 -1
-22 7 -10 6 9 10 10 10 3 0 -6 -4 -15 -10 -18 -13 -8 -13 -95 1 -95 5 0 7 6 3
13 -5 8 -2 8 9 -2 15 -12 17 -11 18 5 1 11 1 27 0 37 -1 9 3 17 8 17 6 0 11
21 11 50 0 29 -5 50 -11 50 -5 0 -8 -4 -4 -9z"/>
<path d="M7342 5384 c-1 -13 2 -24 7 -24 5 0 9 -11 9 -25 0 -14 -4 -25 -9 -25
-5 0 -9 -16 -9 -35 0 -19 -4 -35 -10 -35 -5 0 -10 -11 -10 -25 0 -14 -4 -25
-8 -25 -4 0 -8 -10 -9 -22 -1 -11 -6 -24 -11 -27 -6 -3 -10 -15 -10 -26 1 -58
-3 -75 -18 -75 -8 0 -12 -5 -9 -10 4 -6 3 -10 -2 -9 -4 1 -20 1 -35 0 -23 -1
-28 -6 -28 -26 0 -15 6 -25 14 -25 8 0 18 -5 22 -12 4 -7 3 -8 -4 -4 -8 4 -12
0 -12 -11 0 -10 -9 -25 -20 -33 -11 -8 -20 -18 -20 -23 0 -14 -27 -37 -44 -37
-22 0 -20 -20 2 -21 9 -1 21 -1 26 0 5 1 6 -5 3 -14 -5 -12 3 -15 46 -15 46 0
55 3 71 28 12 18 16 21 12 7 -5 -18 -5 -18 7 -3 11 14 14 14 23 2 6 -10 17
-12 39 -6 26 7 30 13 28 40 -1 29 1 32 30 33 18 1 42 0 55 -1 12 -1 22 4 22
10 0 8 -11 11 -29 8 -17 -2 -28 -1 -25 3 2 4 -3 14 -11 23 -9 8 -16 19 -16 23
-1 4 -5 7 -10 5 -5 -1 -9 2 -9 8 0 6 4 10 8 10 10 0 38 70 34 83 -1 5 2 6 8 2
6 -4 10 4 10 19 0 13 5 26 11 28 5 2 11 10 12 18 2 8 7 21 11 29 7 11 6 12 -5
6 -12 -8 -12 -6 0 9 11 13 11 20 3 28 -17 17 -16 92 1 82 7 -5 7 -1 -3 12 -8
10 -16 21 -17 23 -1 2 -10 -2 -20 -10 -11 -9 -14 -10 -9 -1 4 7 1 12 -8 12 -9
0 -16 7 -16 15 0 8 -9 15 -21 15 -11 0 -17 5 -14 10 3 6 -1 10 -10 10 -9 0
-14 4 -10 9 3 5 2 12 -3 15 -4 2 -9 -6 -10 -20z m13 -463 c3 -5 2 -12 -3 -15
-5 -3 -9 1 -9 9 0 17 3 19 12 6z"/>
<path d="M2489 5314 c-58 -17 -131 -81 -159 -138 -37 -77 -41 -134 -23 -341
15 -173 15 -193 0 -227 -20 -46 -66 -72 -114 -63 -76 14 -149 119 -160 230 -8
72 11 121 68 176 l49 47 -41 89 c-23 48 -43 90 -45 92 -6 7 -81 -47 -119 -86
-20 -21 -49 -60 -64 -88 -24 -46 -26 -60 -26 -165 0 -127 11 -171 72 -294 73
-147 166 -216 292 -216 123 0 240 79 282 189 24 63 28 210 10 336 -23 157 -10
239 43 263 80 36 186 -116 174 -249 -4 -43 -12 -57 -45 -91 l-40 -40 40 -98
41 -99 29 16 c53 27 113 97 136 157 76 204 -66 546 -249 600 -64 19 -90 19
-151 0z"/>
<path d="M7796 5315 c-11 -8 -14 -15 -8 -15 20 0 26 4 28 18 3 15 3 15 -20 -3z"/>
<path d="M12775 5298 c-96 -34 -179 -137 -230 -289 -71 -205 -26 -378 115
-452 49 -25 63 -28 125 -25 127 7 186 54 323 256 93 137 129 172 176 172 93 0
142 -122 100 -246 -38 -113 -91 -156 -199 -164 l-70 -5 -25 -97 c-13 -53 -21
-101 -16 -105 4 -4 51 -8 104 -8 86 0 103 3 154 28 74 36 131 101 179 202 50
107 71 193 72 292 0 73 -4 90 -32 147 -54 111 -158 176 -279 176 -116 0 -198
-65 -329 -260 -38 -58 -84 -119 -100 -137 -58 -62 -126 -52 -151 22 -11 34
-11 50 2 104 19 74 57 145 89 163 12 7 46 15 76 18 l54 5 29 85 c34 102 35
116 6 124 -36 9 -140 6 -173 -6z"/>
<path d="M7605 5281 c-3 -5 -2 -12 3 -15 5 -3 9 1 9 9 0 17 -3 19 -12 6z"/>
<path d="M7640 5250 c0 -5 5 -10 11 -10 5 0 7 5 4 10 -3 6 -8 10 -11 10 -2 0
-4 -4 -4 -10z"/>
<path d="M7719 5092 c-1 -4 -1 -16 0 -27 2 -17 0 -18 -9 -5 -10 13 -11 13 -7
0 2 -8 13 -16 25 -18 18 -3 22 2 22 21 0 22 -28 48 -31 29z"/>
<path d="M7550 5045 c0 -38 3 -45 20 -45 14 0 18 5 13 17 -4 11 -3 14 5 9 17
-11 15 32 -2 50 -25 25 -36 16 -36 -31z"/>
<path d="M7685 5009 c-3 -4 2 -6 10 -5 21 3 28 13 10 13 -9 0 -18 -4 -20 -8z"/>
<path d="M8190 4970 c0 -17 -5 -30 -12 -30 -9 0 -8 -4 2 -10 12 -8 11 -10 -7
-10 -20 0 -23 -5 -23 -45 0 -25 5 -45 11 -45 5 0 8 4 4 9 -3 5 -1 12 4 16 6 3
7 13 4 21 -3 10 1 17 14 20 33 9 46 41 31 75 -17 37 -28 37 -28 -1z"/>
<path d="M7572 4952 c-24 -19 -20 -32 10 -32 12 0 18 7 18 23 0 18 2 19 10 7
8 -13 10 -12 10 3 0 22 -19 21 -48 -1z"/>
<path d="M7734 4946 c1 -14 4 -28 7 -31 3 -3 5 6 5 19 -1 14 -4 28 -7 31 -3 3
-5 -6 -5 -19z"/>
<path d="M7630 4946 c0 -2 7 -9 15 -16 9 -7 15 -8 15 -2 0 5 -7 12 -15 16 -8
3 -15 4 -15 2z"/>
<path d="M7810 4910 c0 -5 5 -10 11 -10 5 0 7 5 4 10 -3 6 -8 10 -11 10 -2 0
-4 -4 -4 -10z"/>
<path d="M7495 4897 c-4 -10 -5 -21 -1 -24 10 -10 18 4 13 24 -4 17 -4 17 -12
0z"/>
<path d="M7713 4903 c-20 -7 -15 -30 6 -36 22 -5 31 0 31 19 0 14 -20 23 -37
17z"/>
<path d="M8185 4857 c-10 -8 -14 -17 -9 -20 6 -3 15 3 22 14 14 23 12 24 -13
6z"/>
<path d="M7267 4803 c-4 -3 -7 -11 -7 -17 0 -6 5 -5 12 2 6 6 9 14 7 17 -3 3
-9 2 -12 -2z"/>
<path d="M7309 4798 c-8 -7 -12 -12 -10 -11 12 7 28 -20 23 -39 -4 -18 -2 -20
16 -16 27 7 38 -18 13 -31 -10 -6 -22 -7 -26 -3 -3 4 -6 3 -5 -3 6 -29 -2 -36
-37 -34 -21 2 -44 7 -52 13 -11 8 -13 8 -7 -1 4 -7 3 -13 -3 -13 -5 0 -12 6
-14 13 -4 9 -6 9 -6 -1 -1 -8 -6 -10 -13 -6 -10 6 -10 5 -1 -8 7 -8 9 -18 5
-22 -4 -4 -2 -7 3 -6 6 1 24 2 40 1 23 -1 27 -3 15 -11 -17 -11 -15 -11 58
-12 41 0 52 -3 48 -14 -4 -11 5 -14 37 -15 23 -1 50 -1 60 0 9 1 18 -3 18 -8
1 -6 2 -15 3 -20 0 -5 5 -13 10 -18 5 -4 6 -3 2 4 -8 14 4 22 37 25 25 2 28
18 3 18 -15 0 -17 30 -2 30 6 0 2 6 -8 12 -15 8 -21 8 -24 0 -6 -18 -22 -4
-22 19 0 17 -11 24 -33 20 -5 -1 -6 3 -3 8 3 5 -1 14 -9 21 -8 7 -15 19 -15
26 0 8 -6 14 -14 14 -8 0 -16 5 -18 10 -2 6 -13 12 -25 13 -12 0 -19 5 -16 10
3 5 -1 13 -8 18 -12 8 -12 11 1 19 8 5 10 10 4 10 -5 0 -17 -6 -25 -12z"/>
<path d="M6836 4783 c-4 -4 -15 -8 -24 -8 -10 0 -16 -7 -16 -17 1 -9 -4 -14
-11 -12 -15 6 -47 -35 -38 -49 3 -6 1 -7 -5 -3 -6 3 -14 -3 -17 -15 -6 -17 -9
-19 -16 -8 -6 9 -9 -5 -9 -38 0 -55 6 -60 58 -54 6 1 12 -3 12 -9 0 -6 5 -8
10 -5 6 3 10 -2 10 -12 0 -10 9 -25 20 -33 11 -8 20 -25 20 -37 0 -16 6 -23
20 -23 18 0 25 16 21 43 0 4 10 7 24 7 14 0 25 -4 25 -10 0 -5 7 -10 15 -10 9
0 18 -6 21 -14 3 -8 15 -16 26 -19 16 -5 19 -2 15 14 -4 14 3 28 19 42 13 11
24 27 24 34 0 7 5 13 11 13 14 0 39 25 39 39 0 6 -11 11 -25 11 -15 0 -24 -5
-22 -12 1 -8 -11 -14 -30 -16 -25 -2 -33 1 -33 12 0 9 7 16 16 16 8 0 13 4 10
8 -2 4 5 9 16 9 12 1 26 7 32 14 8 9 8 10 -1 5 -8 -5 -13 -1 -13 9 0 9 5 13
11 9 8 -4 8 -1 1 13 -7 13 -7 24 0 34 8 12 9 12 5 -1 -7 -22 18 -52 40 -49 10
2 24 0 31 -4 21 -14 13 5 -13 29 -14 13 -25 27 -25 31 0 5 -9 14 -21 21 -12 8
-18 9 -15 4 3 -6 1 -12 -5 -14 -6 -2 -11 -16 -11 -31 0 -15 -5 -30 -11 -34 -5
-3 -7 -2 -4 3 3 6 2 16 -3 24 -7 11 -28 14 -89 12 -69 -3 -81 -1 -81 13 0 9
-4 14 -9 10 -5 -3 -13 0 -17 6 -4 7 -3 9 3 6 12 -8 49 30 40 40 -4 3 -7 0 -8
-8 0 -9 -3 -8 -8 4 -3 10 -10 14 -15 10z m-16 -23 c0 -5 -2 -10 -4 -10 -3 0
-8 5 -11 10 -3 6 -1 10 4 10 6 0 11 -4 11 -10z m111 -99 c8 -9 13 -17 12 -19
-14 -20 -37 -32 -62 -32 -25 0 -31 4 -31 21 0 41 52 60 81 30z"/>
<path d="M8488 4716 c-3 -24 -1 -32 7 -26 7 6 11 2 11 -10 0 -10 -5 -18 -10
-17 -6 1 -10 -3 -11 -10 0 -6 -3 -15 -7 -19 -4 -3 -6 3 -3 14 2 15 0 19 -11
15 -8 -3 -14 0 -14 6 0 6 -11 11 -25 11 -25 0 -25 -1 -25 -81 0 -51 -4 -78
-10 -74 -5 3 -10 -3 -10 -14 0 -28 -46 -28 -70 0 l-18 20 -7 -20 c-6 -20 -17
-26 -39 -22 -5 1 -5 -6 -2 -16 6 -14 3 -13 -13 4 -12 12 -21 36 -21 53 0 35
-14 38 -45 8 -22 -21 -60 -35 -49 -17 3 5 -2 9 -10 9 -9 0 -16 7 -16 15 0 8
-9 15 -21 15 -11 0 -17 5 -14 10 3 6 -3 10 -14 10 -12 0 -21 -4 -21 -10 0 -5
5 -10 10 -10 6 0 10 -4 10 -10 0 -17 33 -49 43 -43 6 3 7 1 3 -6 -4 -6 -12 -9
-17 -6 -5 4 -9 -3 -9 -14 0 -12 -4 -21 -10 -21 -5 0 -10 7 -10 17 0 9 -3 13
-7 10 -3 -4 -21 3 -40 14 -28 18 -33 18 -33 5 0 -9 -5 -16 -11 -16 -5 0 -7 5
-4 10 4 6 -10 10 -34 10 -31 0 -41 -4 -41 -16 0 -9 -5 -12 -12 -8 -8 5 -7 0 2
-11 8 -10 10 -16 4 -12 -7 4 -14 0 -18 -8 -7 -18 -32 -20 -39 -2 -3 6 -3 -2 0
-19 3 -20 0 -35 -8 -39 -8 -5 -10 -4 -5 3 4 7 2 12 -3 12 -6 0 -11 -4 -11 -10
0 -5 -18 -10 -40 -10 -29 0 -40 -4 -40 -15 0 -8 -4 -15 -9 -15 -5 0 -11 -6
-14 -14 -4 -10 0 -12 16 -8 13 3 18 1 14 -4 -5 -5 -17 -10 -28 -10 -10 -1 -28
-2 -39 -3 -11 0 -20 -8 -20 -16 0 -8 -9 -15 -20 -15 -11 0 -20 -4 -20 -10 0
-5 -7 -10 -15 -10 -8 0 -15 -6 -15 -13 0 -6 -13 -18 -30 -25 -16 -8 -30 -18
-30 -24 0 -5 -13 -23 -30 -38 -16 -15 -30 -33 -30 -39 0 -6 -4 -11 -10 -11
-15 0 -12 -39 4 -56 27 -26 46 -17 46 21 0 25 4 35 16 35 22 0 44 -25 44 -51
0 -18 3 -20 12 -11 7 7 20 12 30 12 10 0 18 5 18 11 0 5 -4 8 -9 5 -4 -3 -1
10 8 29 16 35 35 49 24 18 -5 -15 -3 -14 10 2 16 20 16 20 17 1 0 -20 0 -20
15 0 10 12 13 14 10 3 -4 -12 1 -15 25 -15 16 0 30 4 30 8 0 5 -10 7 -22 3
-21 -5 -21 -5 -5 5 10 7 21 9 24 6 4 -3 12 -1 18 4 9 7 17 5 26 -7 9 -11 10
-14 2 -9 -17 10 -16 -2 1 -20 11 -10 15 -11 18 -2 3 7 11 -2 18 -19 8 -17 18
-29 22 -27 5 3 8 2 7 -3 -1 -4 -1 -21 1 -38 1 -26 3 -27 10 -10 7 17 9 14 9
-13 1 -19 5 -31 11 -27 6 3 10 0 10 -8 0 -7 11 -20 25 -27 19 -10 25 -21 25
-49 0 -27 3 -32 10 -21 6 10 10 11 10 3 0 -7 5 -13 10 -13 6 0 10 23 10 51 0
37 3 48 13 43 7 -5 6 0 -3 11 -9 11 -10 16 -2 11 7 -4 12 -1 12 8 0 9 3 15 8
15 18 -3 32 2 32 12 0 20 28 39 58 39 16 0 35 7 42 15 7 8 17 12 23 8 5 -3 7
-1 3 5 -9 15 11 25 40 18 17 -5 24 -13 23 -29 0 -21 -1 -21 -9 -2 -7 16 -9 12
-9 -18 -1 -26 -5 -36 -13 -31 -7 4 -8 3 -4 -4 12 -19 21 -14 37 19 l15 31 2
-57 c1 -31 -1 -54 -6 -51 -5 3 -9 -1 -9 -9 0 -8 4 -12 8 -10 16 10 39 -8 39
-31 0 -13 5 -24 10 -24 6 0 10 -16 10 -35 0 -19 -4 -35 -10 -35 -5 0 -10 -7
-10 -15 0 -23 15 -18 30 10 7 14 17 25 22 25 4 0 8 6 8 13 0 7 9 19 20 27 11
8 20 25 20 37 0 13 5 23 10 23 6 0 10 12 10 26 0 14 4 23 10 19 9 -5 15 24 11
49 -1 5 5 3 14 -4 9 -7 15 -9 14 -4 -3 18 1 37 8 31 9 -10 32 25 33 51 0 12 5
22 10 22 6 0 10 5 10 11 0 7 8 18 18 25 19 15 56 19 47 5 -3 -5 -2 -12 3 -15
4 -2 9 4 9 15 1 10 -3 19 -10 19 -6 0 -2 7 9 16 10 8 12 12 4 8 -23 -11 -8 2
34 31 39 26 55 28 40 3 -5 -7 -7 -21 -6 -30 2 -10 -2 -18 -8 -18 -6 0 -8 6 -4
13 4 7 3 8 -2 4 -5 -5 -9 -16 -9 -25 0 -9 -6 -16 -13 -14 -8 1 -11 -2 -7 -8 3
-6 10 -8 15 -5 11 7 7 -22 -5 -32 -4 -4 -5 -2 0 6 5 9 4 12 -3 7 -6 -4 -8 -14
-5 -23 5 -12 2 -15 -10 -10 -11 4 -14 2 -10 -8 3 -8 10 -12 16 -8 6 3 7 1 3
-6 -4 -6 -12 -9 -17 -6 -5 4 -9 -1 -9 -10 0 -9 -4 -14 -8 -11 -4 2 -9 -12 -10
-32 -2 -20 -7 -38 -12 -40 -16 -6 -12 -52 5 -52 9 0 12 -6 8 -16 -3 -8 -11
-13 -18 -10 -8 3 -11 -2 -8 -15 3 -10 0 -26 -7 -34 -14 -17 -8 -31 9 -20 6 3
9 11 6 16 -4 5 3 9 13 9 11 0 22 -7 26 -15 3 -8 15 -15 26 -15 11 0 20 7 20
15 0 8 9 15 20 15 11 0 20 3 20 8 0 10 49 32 74 33 12 0 15 3 9 6 -7 2 -13 9
-13 14 0 6 4 8 8 5 4 -2 30 15 57 40 28 24 46 44 42 44 -4 0 6 14 23 31 16 18
30 36 30 41 0 8 8 20 38 53 6 7 12 18 12 24 0 6 4 11 9 11 5 0 11 12 14 28 3
15 8 37 12 50 5 14 3 22 -4 22 -6 0 -11 -7 -11 -15 0 -8 -7 -15 -16 -15 -8 0
-12 -4 -9 -10 4 -6 -5 -10 -19 -10 -14 0 -26 -5 -26 -11 0 -6 -13 -24 -30 -39
-16 -15 -30 -33 -30 -39 0 -6 -7 -11 -16 -11 -18 0 -44 -23 -44 -39 0 -6 -6
-11 -14 -11 -8 0 -16 -5 -18 -12 -2 -6 -9 -8 -15 -5 -12 8 -6 47 8 47 5 0 9
11 9 25 0 16 6 25 15 25 9 0 15 10 15 26 0 14 4 23 10 19 9 -5 13 32 13 120 0
84 -3 95 -24 95 -22 0 -49 -22 -49 -39 0 -6 -10 -11 -22 -11 -18 0 -20 -2 -8
-9 8 -6 18 -7 22 -5 13 8 9 -39 -5 -57 -7 -9 -24 -16 -39 -16 -19 0 -24 3 -17
11 5 6 16 20 24 31 9 11 14 16 13 10 -2 -5 0 -11 5 -12 16 -6 19 -2 7 12 -14
17 -60 21 -60 5 0 -5 -9 -10 -20 -10 -11 0 -20 -7 -20 -15 0 -8 -7 -15 -15
-15 -8 0 -15 -4 -15 -10 0 -6 -3 -9 -7 -9 -20 3 -33 -2 -33 -14 0 -7 -9 -19
-20 -27 -11 -8 -20 -19 -20 -25 0 -6 -9 -17 -20 -25 -11 -8 -20 -20 -20 -28 0
-8 -5 -10 -12 -6 -10 6 -10 5 -1 -7 10 -12 8 -15 -13 -17 -23 -2 -24 1 -24 58
0 33 -4 60 -10 60 -5 0 -10 7 -10 15 0 8 -4 15 -10 15 -5 0 -10 11 -10 25 0
18 -5 25 -20 25 -11 0 -20 -7 -20 -15 0 -8 -9 -15 -20 -15 -11 0 -20 -4 -20
-10 0 -5 -11 -10 -25 -10 -16 0 -25 -6 -25 -15 0 -8 -9 -15 -20 -15 -11 0 -20
-4 -20 -10 0 -5 -9 -10 -20 -10 -11 0 -20 -7 -20 -15 0 -8 -8 -15 -18 -15 -10
0 -24 -9 -32 -20 -8 -11 -25 -20 -37 -20 -13 0 -23 -6 -23 -13 0 -14 -40 -43
-54 -39 -5 2 -3 -5 5 -14 9 -12 9 -15 2 -10 -9 5 -13 1 -13 -11 0 -15 -2 -16
-10 -3 -6 10 -10 11 -10 3 0 -7 -4 -13 -10 -13 -5 0 -10 7 -10 16 0 9 -5 12
-12 8 -8 -5 -7 0 2 11 9 11 10 16 3 11 -10 -5 -13 3 -13 28 0 20 -3 35 -7 34
-5 -1 -20 4 -35 10 -26 10 -33 22 -29 45 1 5 -3 6 -7 3 -11 -7 -52 27 -52 43
0 6 -6 11 -14 11 -9 0 -13 7 -11 19 3 14 -1 18 -11 14 -8 -3 -14 0 -14 6 0 6
3 10 8 10 20 -3 32 2 26 13 -4 6 -3 8 4 4 6 -3 17 1 25 9 22 21 60 19 77 -5 8
-11 19 -20 25 -20 6 0 17 9 25 20 8 11 22 20 32 20 10 0 18 7 18 15 0 23 28
18 54 -10 29 -31 62 -32 89 -2 13 15 21 18 24 10 7 -18 43 -16 43 2 0 8 7 15
16 15 8 0 12 5 9 10 -4 6 -3 10 2 9 24 -4 43 3 43 16 0 8 5 15 11 15 6 0 9 6
6 13 -3 9 4 12 27 9 26 -3 35 -10 44 -36 7 -18 12 -40 12 -49 0 -9 5 -17 10
-17 6 0 10 5 10 11 0 14 25 39 39 39 6 0 11 6 11 13 0 7 9 19 20 27 11 8 20
18 20 23 0 12 27 37 40 37 14 0 40 25 40 39 0 6 11 11 25 11 16 0 25 -6 25
-16 0 -8 5 -12 10 -9 6 4 8 11 5 16 -4 5 1 9 9 9 8 0 18 10 22 23 12 35 13 48
3 41 -5 -3 -9 14 -9 38 0 31 -3 39 -10 28 -6 -10 -10 -11 -10 -2 0 6 -7 12
-15 12 -8 0 -15 -6 -15 -12 0 -10 -2 -10 -9 0 -4 8 -11 13 -15 13 -23 -3 -32
2 -41 21 -16 35 -32 32 -37 -6z m-18 -117 c0 -5 4 -8 8 -5 4 2 9 -11 10 -30 2
-28 -1 -34 -17 -34 -19 0 -30 29 -23 63 4 18 22 24 22 6z m273 -264 c-7 -21
-12 -19 -10 4 0 11 5 18 9 15 4 -3 5 -11 1 -19z m-1157 -132 c-3 -8 -1 -11 4
-8 6 3 10 -3 10 -14 0 -11 -5 -23 -12 -27 -7 -4 -8 -3 -4 4 4 7 2 12 -3 12 -6
0 -11 -6 -12 -12 0 -10 -2 -10 -6 0 -2 6 -11 12 -18 12 -7 0 -15 12 -17 28 -4
26 -2 27 30 24 24 -3 32 -8 28 -19z"/>
<path d="M7000 4718 c0 -4 4 -8 9 -8 6 0 12 4 15 8 3 5 -1 9 -9 9 -8 0 -15 -4
-15 -9z"/>
<path d="M8167 4703 c-10 -3 -16 -10 -14 -17 4 -9 -2 -11 -19 -8 -14 2 -24 0
-24 -7 0 -6 14 -11 30 -11 21 0 30 5 30 16 0 8 4 13 8 10 5 -3 9 1 9 9 0 8 -1
14 -1 14 -1 -1 -9 -3 -19 -6z"/>
<path d="M8127 4595 c-3 -7 3 -15 14 -18 10 -3 17 -1 13 4 -3 5 0 9 5 9 19 0
12 16 -8 17 -11 1 -22 -4 -24 -12z"/>
<path d="M2553 4328 l-442 -271 41 -76 c23 -42 47 -84 53 -93 10 -16 30 -6
191 92 98 61 183 110 187 110 15 0 67 -125 67 -162 0 -45 -17 -88 -121 -315
l-80 -174 56 -104 c31 -58 60 -107 64 -109 10 -7 176 335 195 403 9 30 16 74
16 98 0 24 2 43 5 43 3 0 20 -16 37 -36 17 -19 54 -49 82 -65 131 -75 312 -6
382 145 41 89 29 187 -41 326 -31 62 -247 460 -249 460 0 -1 -200 -123 -443
-272z m484 -166 c36 -68 69 -138 73 -155 9 -44 -4 -88 -38 -120 -58 -55 -130
-52 -180 9 -29 35 -162 267 -162 281 0 5 49 38 108 74 96 60 108 65 120 50 7
-9 43 -72 79 -139z"/>
<path d="M7214 4571 c3 -5 -4 -11 -15 -14 -12 -3 -18 -10 -15 -15 9 -15 -21
-22 -33 -8 -6 7 -8 16 -4 19 3 4 1 7 -5 7 -20 0 -13 -26 11 -39 18 -10 30 -9
61 4 31 13 36 18 25 31 -10 12 -9 13 5 8 9 -3 16 -1 16 5 0 6 -12 11 -26 11
-14 0 -23 -4 -20 -9z"/>
<path d="M7602 4555 c-1 -19 3 -25 18 -25 25 0 26 12 2 33 -17 15 -18 15 -20
-8z"/>
<path d="M8161 4558 l-14 -23 24 20 c13 11 26 21 28 22 2 2 -2 3 -10 3 -8 0
-20 -10 -28 -22z"/>
<path d="M7111 4548 c-1 -16 -11 -22 -31 -20 -5 1 -10 -32 -13 -75 0 -7 -11
-13 -24 -13 -18 0 -23 -6 -23 -24 0 -14 5 -28 10 -31 6 -4 8 -11 5 -16 -6 -8
8 -13 28 -10 4 0 7 -3 7 -9 0 -5 7 -10 16 -10 8 0 12 5 9 10 -3 6 -1 10 4 10
6 0 11 5 11 11 0 5 -5 7 -12 3 -7 -4 -8 -3 -4 4 4 7 16 12 26 12 10 0 22 5 26
12 5 7 2 9 -8 6 -12 -5 -14 0 -8 33 4 22 3 42 -2 45 -5 3 -7 12 -4 20 3 8 1
24 -4 36 -7 18 -9 19 -9 6z m-24 -80 c-3 -8 -6 -5 -6 6 -1 11 2 17 5 13 3 -3
4 -12 1 -19z"/>
<path d="M7294 4549 c-4 -7 -3 -9 3 -6 5 3 10 0 10 -7 0 -7 -9 -11 -22 -9 -16
4 -24 -3 -35 -31 -10 -27 -20 -36 -37 -36 -13 0 -23 -4 -23 -10 0 -5 5 -10 10
-10 6 0 9 -3 9 -7 -1 -5 -1 -17 0 -28 1 -15 3 -17 10 -6 7 11 11 8 16 -10 4
-13 16 -31 26 -40 20 -17 26 -64 9 -74 -5 -3 -10 -23 -10 -43 0 -31 4 -38 20
-39 11 -1 18 2 15 7 -3 5 0 12 6 16 7 4 9 3 5 -4 -3 -6 -2 -13 4 -17 5 -3 10
1 10 10 0 9 4 14 9 10 5 -3 9 8 9 25 -1 16 -5 30 -10 30 -19 0 -6 18 16 22 19
4 23 1 18 -10 -4 -11 -1 -14 10 -10 10 4 15 1 14 -9 0 -9 5 -18 11 -20 9 -3
12 4 11 21 -1 14 -8 26 -15 26 -7 0 -13 5 -13 10 0 17 -47 60 -65 60 -22 0
-19 19 7 41 23 21 29 23 27 12 -3 -20 15 -53 28 -53 9 0 11 -5 7 -12 -5 -9 -3
-9 9 1 9 7 14 18 10 24 -4 6 -1 7 7 2 9 -5 11 -4 6 3 -4 7 -14 12 -22 12 -8 0
-12 5 -9 10 3 6 -1 10 -9 10 -9 0 -16 6 -16 14 0 8 -13 16 -30 18 -27 4 -35
-2 -31 -24 0 -5 -3 -8 -9 -8 -5 0 -10 7 -10 15 0 8 -4 15 -10 15 -5 0 -10 10
-10 22 0 12 3 18 6 15 9 -9 54 44 54 63 0 13 1 13 11 0 9 -13 10 -13 6 0 -5
19 -33 25 -43 9z"/>
<path d="M7130 4500 c0 -5 5 -10 10 -10 6 0 10 5 10 10 0 6 -4 10 -10 10 -5 0
-10 -4 -10 -10z"/>
<path d="M7391 4503 c-1 -7 -8 -13 -16 -13 -8 0 -15 -5 -15 -11 0 -14 25 -39
39 -39 6 0 11 -7 11 -16 0 -10 6 -14 15 -11 19 8 30 -10 16 -27 -16 -19 -3
-26 43 -26 30 0 46 -6 56 -20 15 -20 60 -28 60 -10 0 6 9 10 20 10 11 0 20 5
20 11 0 5 -4 7 -10 4 -5 -3 -10 -1 -10 5 0 6 -5 8 -12 4 -9 -5 -9 -2 1 9 16
20 2 23 -18 5 -11 -10 -13 -10 -7 0 5 8 -1 12 -18 12 -15 0 -25 5 -23 12 1 8
-12 11 -41 9 -50 -3 -79 14 -61 35 9 11 7 14 -8 14 -12 0 -23 11 -30 28 -6 15
-11 21 -12 15z"/>
<path d="M7525 4493 c-13 -30 -15 -53 -5 -53 6 0 10 7 10 15 0 8 6 15 13 15 8
0 7 4 -3 10 -12 8 -9 10 13 10 15 0 27 5 27 10 0 17 -47 11 -55 -7z"/>
<path d="M12409 4487 c-67 -35 -122 -113 -258 -364 -69 -125 -131 -237 -138
-249 -12 -19 8 -33 419 -285 237 -145 437 -267 444 -272 9 -5 28 21 63 85 46
86 49 94 33 106 -9 7 -92 59 -184 115 l-167 101 27 49 c37 69 77 104 131 116
25 6 136 18 245 26 110 8 200 16 201 17 9 10 115 208 115 214 0 10 -334 -3
-400 -16 -30 -6 -77 -21 -106 -34 l-52 -24 15 57 c29 110 3 220 -71 294 -85
85 -223 113 -317 64z m144 -211 c78 -32 106 -108 71 -192 -26 -64 -138 -264
-147 -264 -17 0 -217 125 -217 135 0 5 35 73 78 150 99 178 134 205 215 171z"/>
<path d="M6620 4425 c0 -8 -4 -15 -10 -15 -6 0 -10 -47 -10 -120 0 -73 4 -120
10 -120 6 0 10 -11 10 -25 0 -19 -5 -25 -22 -26 -22 0 -22 -1 -3 -9 17 -7 16
-8 -8 -7 -15 1 -26 6 -23 12 2 7 -7 10 -25 7 -18 -3 -29 0 -29 7 0 7 5 9 12 5
7 -4 8 -3 4 4 -4 7 -14 12 -22 12 -8 0 -12 5 -9 10 3 6 1 10 -5 10 -13 0 -40
25 -40 37 0 5 -9 15 -20 23 -11 8 -20 18 -20 23 0 12 -27 37 -39 37 -6 0 -11
7 -11 15 0 8 -4 15 -10 15 -5 0 -10 9 -10 20 0 11 -4 20 -10 20 -5 0 -9 -16
-8 -35 1 -19 5 -32 10 -29 4 3 8 -8 8 -25 0 -16 5 -31 10 -33 6 -2 12 -13 13
-25 0 -12 5 -19 9 -17 5 3 5 10 2 16 -4 7 -2 8 5 4 6 -4 9 -11 6 -15 -2 -5 4
-18 15 -31 10 -12 16 -29 13 -37 -4 -11 -2 -14 5 -9 7 4 12 1 12 -8 0 -9 5
-16 10 -16 6 0 10 -7 10 -15 0 -8 5 -15 10 -15 6 0 10 -9 10 -21 0 -11 5 -17
10 -14 6 3 10 -2 10 -12 0 -10 9 -25 20 -33 11 -8 20 -20 20 -27 0 -7 5 -13
11 -13 6 0 17 -7 26 -15 8 -8 19 -12 25 -9 7 5 8 2 4 -5 -5 -7 -15 -10 -23 -7
-8 4 -11 1 -8 -5 4 -6 13 -8 21 -5 7 3 20 -1 28 -9 8 -8 20 -15 26 -15 14 0
40 -25 40 -39 0 -6 10 -11 23 -11 12 0 29 -9 37 -20 10 -14 16 -16 22 -7 5 8
8 7 8 -5 0 -11 8 -18 20 -18 11 0 20 -4 20 -10 0 -5 9 -10 20 -10 11 0 23 -7
26 -15 4 -8 17 -15 29 -15 13 0 27 -4 30 -10 3 -5 17 -10 31 -10 14 0 23 -4
20 -8 -2 -4 6 -9 19 -10 13 -1 27 3 31 10 4 6 3 8 -3 5 -6 -4 -21 2 -33 13
-12 11 -28 17 -34 13 -6 -4 -4 2 4 12 8 10 10 16 4 12 -13 -7 -54 24 -54 42 0
6 -5 11 -11 11 -14 0 -39 25 -39 39 0 6 -4 11 -9 11 -8 0 -33 58 -36 80 0 3
-4 11 -9 19 -6 9 -5 12 1 8 5 -3 10 0 10 8 0 8 -4 12 -9 9 -7 -5 -12 18 -9 39
1 6 -13 10 -29 9 -3 0 -7 11 -8 26 -6 59 -7 67 -17 74 -6 5 -4 8 5 8 12 0 12
2 2 9 -7 4 -13 27 -14 49 0 23 -5 42 -10 42 -5 0 -6 -5 -2 -12 4 -7 3 -8 -4
-4 -15 9 -9 73 8 89 10 9 11 9 6 -1 -4 -7 -1 -15 8 -18 9 -3 13 -10 10 -15 -3
-5 2 -9 10 -9 9 0 16 -5 16 -11 0 -5 -6 -7 -12 -3 -7 4 -4 -3 8 -15 11 -12 30
-23 41 -24 13 0 19 -6 16 -14 -3 -7 0 -13 6 -13 26 0 67 -55 70 -95 1 -22 7
-41 12 -43 5 -2 9 -19 9 -38 0 -20 5 -34 13 -34 9 0 8 -3 -2 -9 -9 -6 -10 -11
-2 -15 6 -4 11 -18 11 -32 0 -13 5 -24 10 -24 6 0 10 -9 10 -20 0 -11 5 -20
10 -20 6 0 10 -8 10 -19 0 -10 7 -24 15 -31 9 -7 13 -15 10 -18 -5 -5 35 -37
47 -37 3 0 10 -4 15 -9 4 -5 3 -6 -4 -2 -6 3 -14 2 -18 -4 -3 -5 3 -10 15 -10
12 0 19 -4 16 -9 -4 -5 5 -8 18 -7 18 2 23 -1 18 -12 -4 -11 -1 -14 10 -9 12
4 14 1 11 -14 -4 -15 0 -19 21 -19 16 0 25 -4 21 -10 -4 -6 -3 -10 2 -9 4 1
34 1 66 0 49 -1 57 -4 57 -20 0 -11 5 -23 10 -26 6 -3 10 -19 10 -36 0 -30 37
-82 52 -73 4 3 8 0 8 -5 0 -7 23 -11 55 -11 51 0 55 2 55 23 0 17 -6 23 -26
25 -15 1 -34 11 -44 22 -10 11 -22 20 -28 20 -5 0 -12 11 -14 25 -5 23 -3 25
36 25 27 0 36 3 27 9 -11 7 -11 9 0 14 8 3 -16 6 -53 6 -38 1 -68 5 -68 11 0
6 -18 10 -40 10 -29 0 -40 4 -40 15 0 11 -11 15 -40 15 -27 0 -48 7 -62 20
-12 11 -28 20 -35 20 -7 0 -13 8 -13 19 0 10 -6 24 -14 30 -9 8 -12 26 -9 57
2 28 0 43 -6 40 -5 -4 -13 -1 -17 5 -4 7 -3 9 3 6 16 -10 24 18 10 32 -9 10
-9 12 2 9 7 -2 16 3 19 11 3 9 0 11 -8 6 -9 -6 -11 -4 -5 5 4 7 8 32 8 56 0
26 5 44 11 44 6 0 4 5 -4 10 -12 8 -12 10 -1 10 11 0 11 3 0 17 -10 11 -10 14
-1 9 7 -4 12 -1 12 8 0 9 5 16 10 16 6 0 10 7 10 15 0 15 5 18 35 18 34 0 45
-4 45 -13 0 -7 -6 -7 -20 0 -16 8 -18 8 -14 -4 3 -9 9 -15 12 -14 28 3 72 -4
68 -11 -3 -5 2 -12 11 -15 15 -6 15 -8 3 -16 -12 -8 -10 -10 8 -10 12 0 22 -4
22 -10 0 -5 4 -10 8 -10 16 0 10 43 -9 63 -10 11 -19 27 -19 34 0 8 -4 11 -10
8 -5 -3 -10 3 -10 14 0 12 -5 21 -11 21 -5 0 -7 -5 -4 -11 4 -6 -2 -5 -14 3
-12 7 -21 17 -21 23 0 6 -11 19 -25 29 -13 10 -22 22 -19 27 3 5 -4 9 -15 9
-12 0 -21 5 -21 10 0 6 -9 10 -20 10 -11 0 -20 7 -20 15 0 9 -9 15 -25 15 -14
0 -25 5 -25 10 0 16 -30 12 -36 -5 -4 -8 -11 -12 -17 -8 -6 4 -8 0 -4 -10 3
-9 0 -23 -8 -31 -8 -7 -15 -29 -17 -48 -1 -29 -6 -35 -22 -34 -12 1 -20 7 -19
13 1 6 -9 14 -22 17 -15 4 -25 14 -25 24 0 10 -9 24 -20 32 -11 8 -20 18 -20
23 0 12 -20 29 -52 46 -16 8 -28 20 -28 28 0 7 -5 13 -11 13 -14 0 -39 25 -39
39 0 6 -13 11 -30 11 -20 0 -30 -5 -30 -15z"/>
<path d="M7001 4424 c0 -11 3 -14 6 -6 3 7 2 16 -1 19 -3 4 -6 -2 -5 -13z"/>
<path d="M7408 4354 c-12 -11 4 -34 24 -34 13 0 18 6 16 17 -3 18 -29 29 -40
17z"/>
<path d="M6714 4276 c1 -8 5 -18 8 -22 4 -3 5 1 4 10 -1 8 -5 18 -8 22 -4 3
-5 -1 -4 -10z"/>
<path d="M7985 4260 c3 -5 8 -10 11 -10 2 0 4 5 4 10 0 6 -5 10 -11 10 -5 0
-7 -4 -4 -10z"/>
<path d="M8609 4223 l-24 -28 28 24 c15 14 27 26 27 28 0 8 -8 1 -31 -24z"/>
<path d="M7962 4211 c2 -22 6 -27 22 -23 13 3 17 1 12 -6 -4 -7 -1 -12 8 -12
10 0 16 9 16 25 0 14 -6 25 -12 25 -9 0 -8 4 2 10 11 7 7 10 -18 10 -29 0 -32
-3 -30 -29z"/>
<path d="M7735 4139 c-4 -6 -5 -12 -2 -15 2 -3 7 2 10 11 7 17 1 20 -8 4z"/>
<path d="M8539 4113 c-13 -16 -12 -17 4 -4 9 7 17 15 17 17 0 8 -8 3 -21 -13z"/>
<path d="M7303 4049 c-1 -10 2 -19 8 -19 11 0 12 27 1 34 -4 2 -9 -4 -9 -15z"/>
<path d="M7383 4038 c-13 -6 -23 -17 -23 -25 0 -7 -4 -13 -10 -13 -5 0 -10
-13 -10 -29 0 -17 5 -33 10 -36 6 -3 10 -22 10 -41 0 -19 4 -34 9 -34 4 0 8 8
8 18 0 51 4 73 12 67 19 -11 25 20 19 88 -1 9 -2 17 -2 16 -1 0 -11 -5 -23
-11z"/>
<path d="M7490 4039 c0 -5 5 -7 10 -4 6 3 10 8 10 11 0 2 -4 4 -10 4 -5 0 -10
-5 -10 -11z"/>
<path d="M7360 3839 c0 -5 5 -7 10 -4 6 3 10 8 10 11 0 2 -4 4 -10 4 -5 0 -10
-5 -10 -11z"/>
<path d="M3071 3470 c-211 -175 -391 -325 -398 -333 -13 -12 16 -56 212 -323
125 -170 233 -315 240 -323 11 -11 24 -5 79 42 l66 56 -161 217 c-88 119 -167
227 -175 239 -14 22 -12 25 95 114 l109 90 158 -214 157 -214 26 18 c14 11 45
36 68 57 l42 39 -155 208 c-85 114 -154 211 -154 216 0 5 39 40 87 79 l86 70
32 -41 c17 -23 94 -127 169 -230 121 -165 140 -186 155 -175 63 49 111 93 111
100 0 11 -448 622 -458 625 -4 1 -180 -142 -391 -317z"/>
<path d="M8221 3764 c-10 -12 -10 -19 -2 -27 8 -8 11 -7 11 6 0 10 8 17 21 17
11 0 17 5 14 10 -9 14 -28 12 -44 -6z"/>
<path d="M11739 3493 c-129 -157 -240 -294 -246 -303 -11 -16 32 -59 369 -369
210 -193 385 -350 390 -349 5 2 122 141 259 308 l250 305 -63 57 c-35 32 -65
57 -68 57 -3 0 -72 -83 -155 -185 -82 -102 -166 -203 -185 -226 l-35 -40 -100
92 c-55 50 -99 97 -99 104 1 7 74 101 163 209 88 108 161 199 161 201 0 2 -29
29 -64 60 l-64 56 -168 -205 -167 -204 -81 73 c-45 41 -80 81 -80 89 1 7 75
103 164 213 90 109 167 205 173 212 11 14 -5 35 -74 93 l-46 38 -234 -286z"/>
<path d="M7325 3700 c-3 -5 -1 -10 4 -10 6 0 11 5 11 10 0 6 -2 10 -4 10 -3 0
-8 -4 -11 -10z"/>
<path d="M8155 3700 c-3 -5 -26 -10 -51 -10 -44 0 -53 -10 -35 -38 7 -11 9
-11 14 2 4 9 13 13 21 10 8 -3 27 6 43 20 15 14 25 26 21 26 -4 0 -10 -4 -13
-10z"/>
<path d="M7894 3649 c-4 -7 51 -14 79 -10 4 0 7 -10 7 -24 0 -14 -4 -25 -10
-25 -5 0 -10 -7 -10 -15 0 -8 -9 -15 -20 -15 -11 0 -20 -4 -20 -10 0 -5 -13
-10 -29 -10 -17 0 -33 -4 -36 -10 -3 -5 -24 -10 -46 -10 -29 0 -39 -4 -39 -16
0 -8 -5 -12 -10 -9 -6 4 -8 10 -6 14 3 4 -1 8 -9 8 -9 0 -11 -4 -6 -11 5 -6 9
-15 8 -21 -1 -6 38 -11 96 -13 64 -2 97 0 97 7 0 6 9 11 20 11 11 0 33 14 50
31 24 26 30 41 30 75 0 24 5 44 10 44 6 0 10 5 10 11 0 12 -158 10 -166 -2z"/>
<path d="M8576 3551 c3 -3 19 -6 35 -7 16 -1 27 1 24 4 -3 3 -19 6 -35 7 -16
1 -27 -1 -24 -4z"/>
<path d="M8515 3530 c-3 -5 1 -10 10 -10 9 0 13 5 10 10 -3 6 -8 10 -10 10 -2
0 -7 -4 -10 -10z"/>
<path d="M6983 3508 c-3 -7 -1 -8 5 -4 7 4 12 2 12 -3 0 -6 -5 -11 -12 -11
-20 0 2 -14 27 -17 26 -4 30 3 16 26 -12 18 -39 23 -48 9z m41 -14 c3 -8 2
-12 -4 -9 -6 3 -10 10 -10 16 0 14 7 11 14 -7z"/>
<path d="M7501 3484 c0 -11 3 -14 6 -6 3 7 2 16 -1 19 -3 4 -6 -2 -5 -13z"/>
<path d="M7720 3485 c0 -8 4 -15 8 -15 5 0 9 7 9 15 0 8 -4 15 -9 15 -4 0 -8
-7 -8 -15z"/>
<path d="M3621 2755 c-193 -213 -351 -390 -351 -393 0 -4 125 -134 278 -290
l277 -284 58 66 59 67 -206 210 -206 211 91 99 c50 55 95 101 99 104 4 2 90
-79 191 -180 l183 -185 29 28 c16 15 43 44 59 65 l31 39 -181 181 c-100 100
-182 186 -182 191 0 4 34 46 76 92 l77 85 198 -203 199 -203 59 65 59 64 -248
256 c-136 140 -259 265 -273 278 l-24 23 -352 -386z"/>
<path d="M11391 2999 c-25 -5 -67 -24 -95 -43 -50 -33 -196 -162 -344 -302
l-73 -69 317 -385 c174 -212 325 -396 335 -409 l19 -24 72 69 c40 37 74 71 76
74 1 4 -51 73 -118 153 -66 81 -120 150 -120 154 0 4 54 60 119 124 151 149
176 195 176 319 0 72 -4 93 -27 140 -72 144 -206 223 -337 199z m88 -235 c75
-44 95 -148 42 -220 -43 -59 -181 -188 -190 -178 -4 5 -48 58 -96 118 l-89
109 69 65 c130 119 196 146 264 106z"/>
<path d="M10579 2387 c-133 -48 -266 -161 -318 -271 -73 -152 -65 -321 24
-496 124 -246 316 -368 522 -333 189 33 381 201 428 377 27 99 17 236 -23 341
-65 167 -180 303 -309 367 -59 29 -78 33 -162 36 -81 2 -106 -1 -162 -21z
m233 -203 c43 -22 111 -95 152 -162 109 -180 112 -333 9 -443 -86 -93 -204
-120 -306 -70 -133 64 -272 313 -252 450 28 193 234 309 397 225z"/>
<path d="M4657 2027 c-208 -314 -245 -361 -293 -373 -33 -8 -94 25 -122 67
-31 44 -23 103 25 190 4 6 -153 99 -166 99 -13 0 -59 -106 -71 -163 -29 -141
51 -276 213 -357 50 -25 72 -30 130 -30 85 0 135 21 197 83 55 54 476 686 464
696 -25 21 -152 111 -157 111 -4 0 -103 -145 -220 -323z"/>
<path d="M4966 1661 c-220 -208 -401 -382 -403 -387 -1 -5 40 -31 92 -59 l95
-50 90 90 89 89 38 -21 c21 -11 103 -55 182 -98 l144 -78 -7 -81 c-4 -45 -9
-104 -12 -131 l-6 -50 97 -53 c53 -30 98 -52 100 -50 2 2 24 251 49 553 25
303 48 562 49 578 3 25 -3 31 -88 77 -51 28 -96 50 -101 50 -5 -1 -189 -171
-408 -379z m390 62 c-3 -21 -13 -105 -21 -188 -22 -220 -6 -204 -137 -133 -62
33 -117 65 -123 69 -9 9 260 289 278 289 5 0 6 -17 3 -37z"/>
<path d="M9487 1764 c-53 -27 -87 -50 -84 -57 16 -40 420 -953 423 -956 2 -2
150 67 328 155 293 144 323 161 316 179 -5 11 -21 48 -37 83 l-28 63 -233
-115 -232 -116 -23 53 c-209 479 -333 757 -337 756 -3 0 -45 -20 -93 -45z"/>
<path d="M9000 1626 c-260 -80 -355 -104 -420 -110 -46 -4 -87 -11 -90 -16 -3
-5 -45 -189 -95 -409 -49 -221 -92 -398 -95 -394 -4 5 -76 175 -160 378 -84
204 -156 374 -160 378 -4 5 -63 3 -131 -3 -114 -10 -152 -8 -474 23 -192 19
-353 31 -356 28 -9 -8 -93 -1046 -87 -1063 4 -10 99 -22 382 -47 206 -19 378
-32 381 -29 3 3 8 43 12 90 l6 84 -254 22 c-140 13 -268 25 -284 28 l-30 5 11
140 c6 76 14 142 17 146 4 3 117 -4 253 -16 135 -13 248 -20 251 -17 3 2 8 43
10 90 5 69 3 86 -8 86 -43 0 -485 44 -489 49 -4 3 -1 58 5 121 10 114 10 115
35 113 14 -1 132 -12 262 -24 130 -12 244 -19 252 -16 12 5 16 21 16 66 0 33
4 62 8 65 4 2 106 -221 225 -497 l218 -502 109 9 108 9 113 456 c62 251 116
459 119 463 3 5 58 -184 120 -418 63 -234 118 -430 121 -435 4 -6 152 34 375
102 203 61 370 112 371 113 1 1 -8 40 -21 86 -17 63 -27 84 -39 82 -8 -1 -131
-38 -273 -81 -242 -74 -259 -78 -266 -60 -17 45 -71 260 -66 264 3 3 108 37
234 75 126 39 234 72 241 74 8 4 5 27 -10 85 -12 44 -25 82 -28 85 -3 3 -107
-26 -232 -64 -125 -38 -235 -71 -244 -72 -12 -2 -22 20 -44 97 -16 55 -29 107
-29 116 0 12 61 34 260 94 278 84 270 80 250 141 -5 16 -14 48 -20 72 -6 23
-14 42 -18 41 -4 0 -158 -46 -342 -103z"/>
<path d="M6120 1638 c-6 -29 -57 -264 -114 -523 -69 -316 -99 -472 -92 -476 6
-4 110 -30 231 -59 240 -58 331 -66 414 -36 182 66 312 319 312 605 0 107 -12
165 -50 239 -37 72 -98 134 -165 165 -48 23 -473 137 -509 137 -11 0 -19 -17
-27 -52z m289 -198 c183 -48 231 -88 253 -209 10 -50 8 -79 -6 -162 -45 -254
-119 -360 -249 -358 -69 1 -262 53 -261 70 1 12 147 689 148 689 1 0 52 -14
115 -30z"/>
</g>
</svg>
